<svg version="1.1" xmlns="http://www.w3.org/2000/svg" xmlns:xlink="http://www.w3.org/1999/xlink" width="300" height="300" viewBox="690.07579,285.82127,300,300"><defs><clipPath id="clip-1"><rect x="690.07579" y="285.82127" width="300" height="300" id="clip-1" fill="none"/></clipPath><clipPath id="clip-2"><rect x="4600.50529" y="1905.4751" transform="scale(0.15,0.15)" width="2000" height="2000" id="clip-2" fill="none"/></clipPath><linearGradient x1="840.74629" y1="429.41762" x2="836.24359" y2="425.56427" gradientUnits="userSpaceOnUse" id="color-1"><stop offset="0" stop-color="#b1705c"/><stop offset="1" stop-color="#dfa08e"/></linearGradient><linearGradient x1="826.13134" y1="417.32702" x2="822.02029" y2="418.17587" gradientUnits="userSpaceOnUse" id="color-2"><stop offset="0" stop-color="#af8369"/><stop offset="1" stop-color="#d5b598"/></linearGradient><linearGradient x1="832.34944" y1="403.94417" x2="830.50999" y2="397.08122" gradientUnits="userSpaceOnUse" id="color-3"><stop offset="0" stop-color="#ac8678"/><stop offset="1" stop-color="#e1cfbc"/></linearGradient><linearGradient x1="843.96679" y1="398.39057" x2="843.16579" y2="396.54707" gradientUnits="userSpaceOnUse" id="color-4"><stop offset="0" stop-color="#9a8582"/><stop offset="1" stop-color="#a6a19e"/></linearGradient><linearGradient x1="863.71879" y1="418.48157" x2="871.63879" y2="425.33477" gradientUnits="userSpaceOnUse" id="color-5"><stop offset="0" stop-color="#dfb898"/><stop offset="1" stop-color="#eed7a7"/></linearGradient><linearGradient x1="866.56729" y1="411.22727" x2="871.08229" y2="410.41457" gradientUnits="userSpaceOnUse" id="color-6"><stop offset="0" stop-color="#bfa895"/><stop offset="1" stop-color="#fce3b8"/></linearGradient><linearGradient x1="846.03679" y1="450.84377" x2="842.48329" y2="451.19027" gradientUnits="userSpaceOnUse" id="color-7"><stop offset="0" stop-color="#cb837d"/><stop offset="1" stop-color="#dd9984"/></linearGradient><linearGradient x1="853.63129" y1="424.79372" x2="857.98729" y2="430.39112" gradientUnits="userSpaceOnUse" id="color-8"><stop offset="0" stop-color="#836359"/><stop offset="1" stop-color="#bd8678"/></linearGradient><linearGradient x1="857.28379" y1="419.54672" x2="858.17929" y2="423.73277" gradientUnits="userSpaceOnUse" id="color-9"><stop offset="0" stop-color="#3b1b18"/><stop offset="1" stop-color="#5b3c2f"/></linearGradient><linearGradient x1="824.06839" y1="449.07227" x2="821.28544" y2="449.32427" gradientUnits="userSpaceOnUse" id="color-10"><stop offset="0" stop-color="#b28168"/><stop offset="1" stop-color="#d6b495"/></linearGradient><linearGradient x1="821.70874" y1="428.27222" x2="819.50239" y2="433.36622" gradientUnits="userSpaceOnUse" id="color-11"><stop offset="0" stop-color="#d3855b"/><stop offset="1" stop-color="#ee9f8c"/></linearGradient></defs><g id="document" fill-opacity="0" fill="#ffffff" fill-rule="nonzero" stroke="#000000" stroke-width="0" stroke-linecap="butt" stroke-linejoin="miter" stroke-miterlimit="10" stroke-dasharray="" stroke-dashoffset="0" font-family="none" font-weight="none" font-size="none" text-anchor="none" style="mix-blend-mode: normal"><rect x="4173.07692" y="1419.23077" transform="scale(0.18571,0.26)" width="700" height="500" id="Shape 1 1" vector-effect="non-scaling-stroke"/></g><g fill="none" fill-rule="nonzero" stroke="none" stroke-width="1" stroke-linecap="butt" stroke-linejoin="miter" stroke-miterlimit="10" stroke-dasharray="" stroke-dashoffset="0" font-family="none" font-weight="none" font-size="none" text-anchor="none" style="mix-blend-mode: normal"><g><g id="stage"><g id="layer1 1"><g clip-path="url(#clip-1)" id="Group 1"><g id="Group 1"><g clip-path="url(#clip-2)" id="Group 1"><path d="M835.61944,374.61632c33.80085,-2.45295 63.18885,22.96005 65.64135,56.76075c2.451,33.8007 -22.9635,63.1887 -56.7645,65.6382c-33.798,2.451 -63.18375,-22.962 -65.6352,-56.76c-2.4513,-33.7992 22.95975,-63.186 56.75835,-65.63895z" id="Path 1" fill="#fefefe"/><path d="M820.88284,401.00762c1.76985,-3.3081 7.81035,-7.7334 11.45055,-8.9601c2.9208,-0.98415 6.6447,-2.0622 9.7374,-1.97955c1.932,0.0516 3.888,0.4134 5.817,0.58395c2.1345,0.1887 4.2255,0.1704 6.177,1.14375c1.5405,0.17265 3.9225,0.82155 5.283,1.59615c2.2335,1.27155 4.608,3.6918 6.189,5.68935c0.7605,0.96075 1.5405,2.0256 2.079,3.1299c1.794,2.0844 4.74,11.00235 4.5795,13.6956c-0.03,0.45945 -0.108,0.9147 -0.231,1.3584l-0.192,0.99525c-0.5025,2.51325 -1.1505,5.03325 -1.5705,7.5558c-0.441,1.38555 -0.9045,2.7603 -1.1835,4.1901c-0.0495,0.75225 -0.291,0.8742 -0.591,1.5291c0.351,0.5721 0.2595,1.1862 0.1215,1.8219c-0.2385,1.101 -0.804,2.09115 -1.3695,3.05055c-0.4005,0.783 -0.786,1.545 -1.0755,2.3775c-0.147,0.8565 -0.306,1.695 -0.5295,2.5365c-0.609,1.4535 -1.6275,2.634 -1.6815,4.242c-0.633,1.0965 -1.227,2.265 -1.9905,3.2745c-0.636,1.326 -1.749,2.394 -2.3565,3.717c-0.0465,0.972 -0.3,2.4315 0.0525,3.324c-0.147,0.9 0.1185,2.031 -0.153,2.8245c0.441,1.1865 -0.0555,2.613 0.093,3.873c-0.7515,2.4825 -0.816,4.416 -0.4755,6.9825c1.128,3.3765 3.2715,6.2745 6.5385,7.8735c2.3835,1.164 5.2365,1.7295 7.773,2.493c-3.498,2.643 -7.2945,4.8675 -11.3115,6.627c-1.1925,0.5205 -2.46,0.8835 -3.642,1.404c-0.636,0.207 -1.2705,0.4215 -1.902,0.645l-0.237,0.0765c-0.81,0.15 -1.6185,0.3 -2.4225,0.4815c-0.9105,0.3915 -1.6215,0.4785 -2.5965,0.516l-0.6825,0.2175l-0.189,-0.1515l0.0165,-0.414c-0.264,-0.0735 -0.369,-0.078 -0.627,0.015c-0.054,0.2295 -0.0735,0.645 -0.2805,0.768c-1.005,0.597 -4.521,1.05 -5.646,0.672c-0.174,-0.0585 -0.237,-0.111 -0.3765,-0.204c-0.6315,-0.612 -1.341,-1.155 -1.983,-1.7655c-0.8715,-1.0395 -1.5219,-2.427 -2.59455,-3.261l-0.0192,-0.654l1.47225,-0.7575c0.18,-0.312 1.131,-0.7875 1.449,-0.9975c1.0605,-0.7065 1.9785,-1.395 2.8815,-2.2995l0.0855,-0.324c-1.368,-0.4875 -2.7,-1.0095 -3.9735,-1.716c-4.1997,-2.334 -11.14455,-7.9665 -14.6181,-11.3685c-1.9125,-1.4025 -4.34325,-3.951 -4.47165,-6.4335c-0.04275,-0.825 0.39075,-2.0985 0.0045,-2.751l0.13005,-0.027c0.1152,-0.06 0.1491,-0.072 0.2655,-0.1575c1.19745,-0.8775 0.7533,-3.126 0.8181,-4.422c0.0339,-0.6795 0.1938,-1.365 0.3273,-2.031c-0.0357,-2.7345 0.48015,-5.475 0.6564,-8.2035l0.2151,-0.5805c0.37905,-0.876 0.32865,-2.1435 0.3639,-3.081c0.015,-0.4545 0.02085,-0.6495 -0.22035,-1.056c0.138,-0.2925 0.1839,-0.7815 0.14775,-1.1025c-0.045,-0.4005 -0.1869,-0.4875 -0.46185,-0.7455c-0.4026,-0.081 -0.65595,-0.042 -1.05165,0.03l-0.3567,-0.3615c0.54945,-0.027 0.9156,-0.0465 1.34955,-0.3885c0.75795,-2.12175 -1.01085,-6.372 -0.7647,-8.95545l-0.0018,-1.21605c-0.0492,-0.2532 -0.1035,-0.4473 -0.21645,-0.6819c-0.48225,-1.0026 -0.4608,-1.39755 -0.1971,-2.4588c-0.0501,-0.1023 -0.8007,-4.68105 -0.76905,-4.86345c0.6486,-0.72915 1.19295,-1.4457 1.5099,-2.37495c0.01905,-0.0558 0.03645,-0.11235 0.0546,-0.16845c-0.2214,-0.1101 -0.11595,-0.08955 -0.3546,-0.0879c-0.29895,0.00225 -0.1026,0.01995 -0.4554,-0.0444c-0.1623,-0.2778 -0.18585,-0.22845 -0.14355,-0.5775c0.2295,-0.2277 0.1629,-0.1494 0.34065,-0.36465c0.03675,-0.0444 0.07245,-0.0894 0.1086,-0.13425l0.5238,-0.8379c-0.15075,-0.1122 -0.28725,-0.29055 -0.48705,-0.261c-0.35235,0.05205 -0.70035,0.37215 -0.9858,0.5766l-0.49245,-0.16785c0.4611,-0.6486 0.9138,-1.2456 1.16625,-2.0109l0.5037,-0.57c0.0888,-0.7662 0.50205,-1.0089 1.0629,-1.48065c-0.1647,-0.2001 -0.3891,-0.3465 -0.5937,-0.5049c0.34005,-0.72405 1.44285,-1.51485 2.0214,-2.1162l0.4914,-0.8169c0.42885,-1.15095 0.6333,-1.7088 1.719,-2.38845c0.3765,-0.67695 1.2765,-1.21755 1.45425,-1.90035l-0.2328,-0.20565l-0.9645,0.22125c-0.67545,-0.59115 -1.1793,-0.59175 -2.04555,-0.669c-0.38775,-0.06135 -0.7803,-0.16665 -1.16445,-0.25065c-1.10265,-0.2385 -1.82625,-0.40095 -2.8848,0.1023c-0.17925,0.0852 -0.3648,0.1599 -0.55935,0.19785z" id="Path 1" fill="#d69f8e"/><path d="M849.22729,398.61167l0.459,-0.34635c0.06,0.02145 0.12,0.04815 0.1815,0.0645c0.327,0.0852 0.5265,0.0117 0.8445,-0.0657c0.0255,0.3405 -0.0825,0.5196 -0.2145,0.82425c0.33,0.18825 0.507,0.0744 0.8655,0.00615l0.285,0.23295c-0.024,0.4212 -0.123,0.6936 0.2265,1.01925c0.2985,0.2781 0.9855,0.45435 1.374,0.60255l1.1055,-0.0795l0.6795,0.52995c0.48,0.2895 0.7305,0.59265 1.062,1.04085c-0.435,0.0378 -0.969,-0.0012 -1.3035,0.30735c-0.0345,0.14715 -0.078,0.2757 -0.066,0.42735c-0.003,0.0378 -0.006,0.0756 -0.0075,0.1134c-0.0105,0.2865 -0.0165,0.56415 -0.048,0.8496c-0.4185,0.1665 -0.7485,0.0426 -1.1835,-0.0801c-1.4985,-0.4236 -2.676,0.27975 -4.11,0.18045c-0.6735,-0.0468 -1.941,-0.8604 -2.5605,-1.176l-0.138,0.04995l-0.0735,0.12255l-0.216,-0.17115c-0.492,0.0471 -0.9195,0.0045 -1.1985,0.5073c-0.033,0.05925 -0.045,0.1275 -0.0675,0.19125c0.156,0.21345 0.3135,0.3903 0.504,0.57345l0.0525,0.36735l-0.1065,0.10695c-0.0405,-0.0258 -0.0795,-0.0522 -0.12,-0.07755c-0.3525,-0.22095 -0.5895,-0.3747 -1.0245,-0.2976c-0.636,0.11295 -1.464,0.42225 -2.0205,0.7545l1.0245,0.6885c0.0045,0.252 -0.0135,0.4794 -0.051,0.72855c0.1485,0.2391 0.0825,0.23925 0.318,0.3084c1.008,0.29655 1.9125,-0.3717 2.6145,0.82335c0.8355,1.4199 0.228,4.4478 1.617,5.40345l0.3255,-0.04935l0.336,-0.546l-0.18,0.234l0.333,-0.2106c-0.051,0.41895 -0.144,0.7071 -0.309,1.09695c-0.3045,0.714 -0.294,1.18665 -0.0105,1.9158c0.252,0.64425 1.215,2.4975 0.9405,3.09615c-0.3585,0.7797 -1.116,1.4043 -1.941,1.6191c-0.627,0.16335 -1.605,0.1128 -2.157,-0.26025c-0.1845,-0.12495 -0.336,-0.30255 -0.486,-0.46425l-0.357,-0.09165l-0.1935,0.2424c-0.2025,-0.0312 -0.1125,0.00435 -0.3075,-0.13845c-1.5885,-1.1619 -3.633,-1.00635 -5.51925,-0.8727l0.1779,0.0393c0.8061,0.17085 2.63835,0.07365 3.25785,0.4518c0.1605,0.09795 0.2415,0.28845 0.3615,0.43275c0.6765,0.4335 1.584,0.3888 2.148,0.9147c-0.4755,0.5271 -0.756,0.5448 -1.4265,0.681c0.0615,0.98595 0.69,1.74615 0.984,2.67195c-0.09,0.75255 -0.4665,1.1076 -0.96,1.632c0.006,0.3096 0.078,0.3999 -0.132,0.64275l-0.951,-0.02085l-0.1545,0.46695c0.432,0.19035 0.669,0.20955 0.9015,0.6306c-0.069,0.28005 -0.132,0.5214 -0.2655,0.7779c-1.533,0.3462 -3.08355,0.54615 -4.65705,0.44415c-0.9366,-0.06075 -1.81545,-0.28635 -2.7564,-0.1602l-0.25905,0.15195l-0.63795,-0.2328c0.2646,1.0815 2.47485,3.4152 3.2199,4.44195c0.32415,0.111 0.17385,0.09915 0.4458,0.07785c0.28575,0.4953 0.357,2.0412 0.189,2.58705c-0.10845,0.3528 -0.297,0.70695 -0.46455,1.03545l0.1872,0.1395l0.4689,-0.075c-0.2034,0.3285 -0.5379,0.537 -0.73155,0.8595c-0.2322,0.387 -0.17085,0.9 -0.4071,1.287c-1.1844,1.9425 -2.8062,2.988 -3.09555,5.418c0.31725,0.642 0.82305,1.269 0.9261,1.98l-0.10425,-0.0285c-0.14835,0.213 -0.32205,0.5085 -0.52185,0.669c-0.30165,0.2415 -0.4554,0.213 -0.7998,0.1515c-0.6303,-0.6645 -0.8034,-1.722 -1.28265,-2.5155c-0.03,0.054 -0.05325,0.1125 -0.08985,0.162c-0.2244,0.306 -0.32775,0.324 -0.6786,0.3945c-0.61935,-0.2745 -1.99725,-0.72 -2.4273,-1.212c-0.56355,-0.645 -0.0588,-1.6965 -0.1086,-2.457c-0.02505,-0.381 -0.17325,-0.6525 -0.4473,-0.9135c-0.27975,-0.0885 -0.5766,-0.171 -0.84315,-0.294c-0.41745,-0.192 -0.54735,-0.567 -0.6936,-0.975c-0.6603,-1.8405 -2.11065,-7.7595 -1.2762,-9.498c-0.1476,-0.1935 -0.19275,-0.27615 -0.22335,-0.52185c-0.1377,-1.1049 -0.5226,-2.3808 -0.87315,-3.43815c-0.33915,0.6231 -0.61005,1.3233 -1.2759,1.65705l-0.0018,-1.21605c-0.0492,-0.2532 -0.1035,-0.4473 -0.21645,-0.6819c-0.48225,-1.0026 -0.4608,-1.39755 -0.1971,-2.4588c-0.0501,-0.1023 -0.8007,-4.68105 -0.76905,-4.86345c0.6486,-0.72915 1.19295,-1.4457 1.5099,-2.37495c0.01905,-0.0558 0.03645,-0.11235 0.0546,-0.16845c-0.2214,-0.1101 -0.11595,-0.08955 -0.3546,-0.0879c-0.29895,0.00225 -0.1026,0.01995 -0.4554,-0.0444c-0.1623,-0.2778 -0.18585,-0.22845 -0.14355,-0.5775c0.2295,-0.2277 0.1629,-0.1494 0.34065,-0.36465c0.03675,-0.0444 0.07245,-0.0894 0.1086,-0.13425l0.5238,-0.8379c-0.15075,-0.1122 -0.28725,-0.29055 -0.48705,-0.261c-0.35235,0.05205 -0.70035,0.37215 -0.9858,0.5766l-0.49245,-0.16785c0.4611,-0.6486 0.9138,-1.2456 1.16625,-2.0109l0.5037,-0.57c0.0888,-0.7662 0.50205,-1.0089 1.0629,-1.48065c-0.1647,-0.2001 -0.3891,-0.3465 -0.5937,-0.5049c0.34005,-0.72405 1.44285,-1.51485 2.0214,-2.1162l0.4914,-0.8169c0.42885,-1.15095 0.6333,-1.7088 1.719,-2.38845c0.3765,-0.67695 1.2765,-1.21755 1.45425,-1.90035l-0.2328,-0.20565c0.3453,-0.0861 0.68205,-0.19635 1.02075,-0.30435c1.06665,-0.1062 2.1273,-0.19335 3.19845,-0.2343c0.53805,-0.02055 0.83745,0.0582 1.2957,0.3393l0.30225,0.17535l0.06165,0.3639c1.005,0.1917 2.0337,-0.24405 3.0081,-0.47925c-0.89865,-0.07425 -1.79835,-0.1353 -2.69865,-0.1833c0.8727,-0.05475 1.7376,-0.10545 2.60985,-0.01815c1.4223,0.14265 2.87055,0.6894 4.28055,0.40965c0.9705,0.28545 2.6895,0.52455 3.636,0.10875l0.702,-0.144c0.3885,0.0249 0.7815,0.1116 1.1685,0.1155c0.516,0.00525 0.654,-0.1668 1.0005,-0.4944c0.2235,-0.312 0.414,-0.7311 0.522,-1.0986c0.1455,-0.5007 0.0885,-0.6837 -0.1575,-1.12815z" id="Path 1" fill="#f2bcae"/><path d="M833.35459,421.06082c0.93465,-0.3003 1.78155,-0.4749 2.766,-0.3765c0.8763,-0.0243 1.77105,-0.072 2.64525,0.00345c1.10205,0.09525 3.21345,0.7722 4.15845,0.5448c0.0615,0.98595 0.69,1.74615 0.984,2.67195c-0.09,0.75255 -0.4665,1.1076 -0.96,1.632c0.006,0.3096 0.078,0.3999 -0.132,0.64275l-0.951,-0.02085l-0.1545,0.46695c0.432,0.19035 0.669,0.20955 0.9015,0.6306c-0.069,0.28005 -0.132,0.5214 -0.2655,0.7779c-1.533,0.3462 -3.08355,0.54615 -4.65705,0.44415c-0.9366,-0.06075 -1.81545,-0.28635 -2.7564,-0.1602c-0.96195,-0.30735 -1.97595,-0.5679 -2.9202,-0.90255c-0.4092,0.00795 -1.01985,0.1005 -1.36785,-0.13815l-0.02745,-0.1869c-0.48375,-3.4626 3.9399,-3.4548 5.5476,-5.5815l-0.10215,-0.2844c-0.22035,-0.1044 -0.53055,-0.11565 -0.77145,-0.147l-0.2409,-0.0297c-1.05,-0.13425 -1.89465,0.7875 -2.87775,0.7476c-0.07155,-0.003 -0.14295,-0.0102 -0.21435,-0.0153c0.4365,-0.28035 0.93,-0.4902 1.39575,-0.7191z" id="Path 1" fill="#c07d6c"/><path d="M841.41379,425.99207l0.4515,0.16635l-0.1545,0.46695c0.432,0.19035 0.669,0.20955 0.9015,0.6306c-0.069,0.28005 -0.132,0.5214 -0.2655,0.7779c-1.533,0.3462 -3.08355,0.54615 -4.65705,0.44415c-0.9366,-0.06075 -1.81545,-0.28635 -2.7564,-0.1602c-0.96195,-0.30735 -1.97595,-0.5679 -2.9202,-0.90255c0.4215,-0.2148 0.8448,-0.0363 1.3038,0.0399c0.30525,-0.28095 0.5985,-0.5733 0.89415,-0.864c0.03975,-0.06195 0.0987,-0.11025 0.15585,-0.15675c0.60615,-0.49245 1.56765,-0.2034 2.2863,-0.1509c0.96465,0.36195 1.8351,0.43875 2.85105,0.39c0.636,-0.3045 1.2225,-0.51975 1.9095,-0.68145z" id="Path 1" fill="url(#color-1)"/><path d="M834.21109,426.59117c0.03975,-0.06195 0.0987,-0.11025 0.15585,-0.15675c0.60615,-0.49245 1.56765,-0.2034 2.2863,-0.1509c0.96465,0.36195 1.8351,0.43875 2.85105,0.39l0.4662,0.25065l-0.0102,0.19425l-0.73875,0.4131c-1.3575,-0.126 -2.60715,0.57315 -3.9144,-0.03975c-0.35295,-0.16545 -0.52545,-0.2838 -0.9255,-0.2181c-0.1785,0.21405 -0.234,0.2691 -0.4947,0.3981l-0.57,-0.2166c0.30525,-0.28095 0.5985,-0.5733 0.89415,-0.864z" id="Path 1" fill="#d69f8e"/><path d="M841.41379,425.99207l0.4515,0.16635l-0.1545,0.46695c-0.042,0.0156 -0.084,0.03075 -0.126,0.0468c-0.7365,0.28155 -1.5609,1.10985 -2.36325,0.85935l0.73875,-0.4131l0.0102,-0.19425l-0.4662,-0.25065c0.636,-0.3045 1.2225,-0.51975 1.9095,-0.68145z" id="Path 1" fill="#c07d6c"/><path d="M833.35459,421.06082c0.93465,-0.3003 1.78155,-0.4749 2.766,-0.3765c0.46815,0.0678 0.9357,0.1275 1.39605,0.23865c-0.04425,0.00405 -0.0885,0.00735 -0.1326,0.01215c-0.4269,0.0453 -0.62835,0.10365 -0.97425,0.3834l-0.1482,0.38205l0.19425,0.2748c0.3543,-0.0591 0.4242,-0.1542 0.7365,0.0504c-1.66245,0.666 -3.7335,1.3155 -4.97265,2.6553c-0.0198,0.45 -0.0354,0.90015 -0.0471,1.35045l0.1899,0.2025c0.46875,-0.05505 0.771,-0.2973 1.14855,-0.55575c1.0368,-0.0228 2.25375,0.0249 3.1422,0.60525c-0.71865,-0.0525 -1.68015,-0.34155 -2.2863,0.1509c-0.05715,0.0465 -0.1161,0.0948 -0.15585,0.15675c-0.29565,0.2907 -0.5889,0.58305 -0.89415,0.864c-0.459,-0.0762 -0.8823,-0.2547 -1.3038,-0.0399c-0.4092,0.00795 -1.01985,0.1005 -1.36785,-0.13815l-0.02745,-0.1869c-0.48375,-3.4626 3.9399,-3.4548 5.5476,-5.5815l-0.10215,-0.2844c-0.22035,-0.1044 -0.53055,-0.11565 -0.77145,-0.147l-0.2409,-0.0297c-1.05,-0.13425 -1.89465,0.7875 -2.87775,0.7476c-0.07155,-0.003 -0.14295,-0.0102 -0.21435,-0.0153c0.4365,-0.28035 0.93,-0.4902 1.39575,-0.7191z" id="Path 1" fill="#e2ac94"/><path d="M834.21109,426.59117c-0.6624,0.2358 -1.36035,0.29415 -2.04735,0.1467c-0.18885,-0.1506 -0.35325,-0.2133 -0.42045,-0.45795c-0.15915,-0.5793 0.20865,-1.1112 0.4764,-1.59885c-0.0198,0.45 -0.0354,0.90015 -0.0471,1.35045l0.1899,0.2025c0.46875,-0.05505 0.771,-0.2973 1.14855,-0.55575c1.0368,-0.0228 2.25375,0.0249 3.1422,0.60525c-0.71865,-0.0525 -1.68015,-0.34155 -2.2863,0.1509c-0.05715,0.0465 -0.1161,0.0948 -0.15585,0.15675z" id="Path 1" fill="#dd9c79"/><path d="M839.60434,424.20137c0.42315,0.08985 0.75795,0.0813 1.03995,0.45315c0.0945,0.12345 0.1665,0.4011 0.213,0.5379c0.1755,0.2892 0.327,0.54825 0.5565,0.79965c-0.687,0.1617 -1.2735,0.37695 -1.9095,0.68145c-1.01595,0.04875 -1.8864,-0.02805 -2.85105,-0.39c-0.88845,-0.58035 -2.1054,-0.62805 -3.1422,-0.60525l-0.3054,-0.1704c0.9594,-0.0177 1.3173,-0.27045 2.1282,-0.71985c0.98175,-0.5439 1.5924,0.73695 2.55585,0.86715c1.0401,0.1407 0.94725,-0.8205 1.63425,-1.32555z" id="Path 1" fill="#9c7a6c"/><path d="M836.97814,423.03377c0.83445,0.0138 1.66605,0.0852 2.42595,0.45255c0.14385,0.267 0.21015,0.4095 0.20025,0.71505l-0.0804,0.12825c-0.687,0.50505 -0.59415,1.46625 -1.63425,1.32555c-0.96345,-0.1302 -1.5741,-1.41105 -2.55585,-0.86715c-0.8109,0.4494 -1.1688,0.70215 -2.1282,0.71985c0.71745,-1.1058 2.61645,-1.8582 3.7725,-2.4741z" id="Path 1" fill="#3b251e"/><path d="M840.18679,422.27567l0.1485,0.1332c0.7485,0.6645 1.8315,1.1358 2.0715,2.2227c0.1305,0.5832 0.1425,0.9843 0.4095,1.5477l-0.951,-0.02085l-0.4515,-0.16635c-0.2295,-0.2514 -0.381,-0.51045 -0.5565,-0.79965c-0.0465,-0.1368 -0.1185,-0.41445 -0.213,-0.5379c-0.282,-0.37185 -0.6168,-0.3633 -1.03995,-0.45315c0.0099,-0.30555 -0.0564,-0.44805 -0.20025,-0.71505c-0.7599,-0.36735 -1.5915,-0.43875 -2.42595,-0.45255c1.10205,-0.4449 2.0682,-0.5058 3.20865,-0.7581z" id="Path 1" fill="#894f44"/><path d="M849.22729,398.61167l0.459,-0.34635c0.06,0.02145 0.12,0.04815 0.1815,0.0645c0.327,0.0852 0.5265,0.0117 0.8445,-0.0657c0.0255,0.3405 -0.0825,0.5196 -0.2145,0.82425c0.33,0.18825 0.507,0.0744 0.8655,0.00615l0.285,0.23295c-0.024,0.4212 -0.123,0.6936 0.2265,1.01925c0.2985,0.2781 0.9855,0.45435 1.374,0.60255l1.1055,-0.0795l0.6795,0.52995c0.48,0.2895 0.7305,0.59265 1.062,1.04085c-0.435,0.0378 -0.969,-0.0012 -1.3035,0.30735c-0.0345,0.14715 -0.078,0.2757 -0.066,0.42735c-0.003,0.0378 -0.006,0.0756 -0.0075,0.1134c-0.0105,0.2865 -0.0165,0.56415 -0.048,0.8496c-0.4185,0.1665 -0.7485,0.0426 -1.1835,-0.0801c-1.4985,-0.4236 -2.676,0.27975 -4.11,0.18045c-0.6735,-0.0468 -1.941,-0.8604 -2.5605,-1.176l-0.138,0.04995l-0.0735,0.12255l-0.216,-0.17115c-2.1375,-0.3153 -4.2465,-0.76065 -6.40965,-0.8937l0.64215,0.1236c-1.84215,0.05235 -3.68415,-0.1329 -5.53035,-0.075l-1.23345,0.4965c-1.04175,0.41445 -2.1882,0.5463 -3.30045,0.57285l-1.0968,0.03255l-0.11055,0.05205l-1.416,0.24555c0.3765,-0.67695 1.2765,-1.21755 1.45425,-1.90035l-0.2328,-0.20565c0.3453,-0.0861 0.68205,-0.19635 1.02075,-0.30435c1.06665,-0.1062 2.1273,-0.19335 3.19845,-0.2343c0.53805,-0.02055 0.83745,0.0582 1.2957,0.3393l0.30225,0.17535l0.06165,0.3639c1.005,0.1917 2.0337,-0.24405 3.0081,-0.47925c-0.89865,-0.07425 -1.79835,-0.1353 -2.69865,-0.1833c0.8727,-0.05475 1.7376,-0.10545 2.60985,-0.01815c1.4223,0.14265 2.87055,0.6894 4.28055,0.40965c0.9705,0.28545 2.6895,0.52455 3.636,0.10875l0.702,-0.144c0.3885,0.0249 0.7815,0.1116 1.1685,0.1155c0.516,0.00525 0.654,-0.1668 1.0005,-0.4944c0.2235,-0.312 0.414,-0.7311 0.522,-1.0986c0.1455,-0.5007 0.0885,-0.6837 -0.1575,-1.12815z" id="Path 1" fill="#e3bda9"/><path d="M849.22729,398.61167l0.459,-0.34635c0.06,0.02145 0.12,0.04815 0.1815,0.0645c0.327,0.0852 0.5265,0.0117 0.8445,-0.0657c0.0255,0.3405 -0.0825,0.5196 -0.2145,0.82425c0.33,0.18825 0.507,0.0744 0.8655,0.00615l0.285,0.23295c-0.024,0.4212 -0.123,0.6936 0.2265,1.01925c0.2985,0.2781 0.9855,0.45435 1.374,0.60255l1.1055,-0.0795l0.6795,0.52995c0.48,0.2895 0.7305,0.59265 1.062,1.04085c-0.435,0.0378 -0.969,-0.0012 -1.3035,0.30735c-0.0345,0.14715 -0.078,0.2757 -0.066,0.42735c-0.0975,0.17985 -0.2235,0.54885 -0.423,0.6099c-0.5265,0.16125 -1.6065,-0.279 -2.199,-0.33915c-0.0405,0.02205 -0.0765,0.04965 -0.12,0.0663c-1.4985,0.59655 -4.3875,-1.3128 -5.8545,-1.74945c-0.0855,-0.0255 -0.1725,-0.0486 -0.2595,-0.0729l0.702,-0.144c0.3885,0.0249 0.7815,0.1116 1.1685,0.1155c0.516,0.00525 0.654,-0.1668 1.0005,-0.4944c0.2235,-0.312 0.414,-0.7311 0.522,-1.0986c0.1455,-0.5007 0.0885,-0.6837 -0.1575,-1.12815z" id="Path 1" fill="#82706b"/><path d="M849.22729,398.61167l0.459,-0.34635c0.06,0.02145 0.12,0.04815 0.1815,0.0645c0.327,0.0852 0.5265,0.0117 0.8445,-0.0657c0.0255,0.3405 -0.0825,0.5196 -0.2145,0.82425c0.33,0.18825 0.507,0.0744 0.8655,0.00615l0.285,0.23295c-0.024,0.4212 -0.123,0.6936 0.2265,1.01925c0.2985,0.2781 0.9855,0.45435 1.374,0.60255c-0.219,0.1143 -0.429,0.31635 -0.678,0.23775c-0.7935,-0.2499 -1.503,-1.1604 -2.34,-1.1043c-0.6915,0.36645 -0.792,0.7701 -1.0635,1.4766l0.1935,0.4416l0.3195,0.1191c0.3465,-0.16005 0.681,-0.30105 1.0425,-0.42465c0.915,0.34305 0.3705,0.92505 1.683,1.24965l-0.3015,0.501c-0.0405,0.02205 -0.0765,0.04965 -0.12,0.0663c-1.4985,0.59655 -4.3875,-1.3128 -5.8545,-1.74945c-0.0855,-0.0255 -0.1725,-0.0486 -0.2595,-0.0729l0.702,-0.144c0.3885,0.0249 0.7815,0.1116 1.1685,0.1155c0.516,0.00525 0.654,-0.1668 1.0005,-0.4944c0.2235,-0.312 0.414,-0.7311 0.522,-1.0986c0.1455,-0.5007 0.0885,-0.6837 -0.1575,-1.12815z" id="Path 1" fill="#a89187"/><path d="M855.03379,401.39972c0.48,0.2895 0.7305,0.59265 1.062,1.04085c-0.435,0.0378 -0.969,-0.0012 -1.3035,0.30735c-0.0345,0.14715 -0.078,0.2757 -0.066,0.42735c-0.0975,0.17985 -0.2235,0.54885 -0.423,0.6099c-0.5265,0.16125 -1.6065,-0.279 -2.199,-0.33915l0.3015,-0.501c0.8205,-0.60195 1.746,-1.04205 2.628,-1.5453z" id="Path 1" fill="#bc9077"/><path d="M830.17639,401.20802c1.06665,-0.1062 2.1273,-0.19335 3.19845,-0.2343c0.53805,-0.02055 0.83745,0.0582 1.2957,0.3393l-0.74445,0.42615c-1.599,0.3936 -3.28365,0.2871 -4.46535,1.5816l-0.11055,0.05205l-1.416,0.24555c0.3765,-0.67695 1.2765,-1.21755 1.45425,-1.90035l-0.2328,-0.20565c0.3453,-0.0861 0.68205,-0.19635 1.02075,-0.30435z" id="Path 1" fill="#bc9077"/><path d="M823.50904,415.40522c0.7641,-0.41205 1.7118,-0.4284 2.5638,-0.53175c-0.2145,0.9285 -0.40185,1.88925 -0.30315,2.84685l-0.4515,0.99135c-0.3204,1.76205 -0.29805,3.52935 -0.56565,5.29245c-0.09975,0.50025 -0.1743,1.0284 -0.3477,1.50765c-0.33915,0.6231 -0.61005,1.3233 -1.2759,1.65705l-0.0018,-1.21605c-0.0492,-0.2532 -0.1035,-0.4473 -0.21645,-0.6819c-0.48225,-1.0026 -0.4608,-1.39755 -0.1971,-2.4588c-0.0501,-0.1023 -0.8007,-4.68105 -0.76905,-4.86345c0.6486,-0.72915 1.19295,-1.4457 1.5099,-2.37495c0.01905,-0.0558 0.03645,-0.11235 0.0546,-0.16845z" id="Path 1" fill="url(#color-2)"/><path d="M823.92424,419.33132c0.30285,-0.15465 0.52935,-0.46425 0.84165,-0.63975c0.2244,-0.1263 0.31575,-0.039 0.5523,0.0201c-0.3204,1.76205 -0.29805,3.52935 -0.56565,5.29245c-0.09975,0.50025 -0.1743,1.0284 -0.3477,1.50765c-0.33915,0.6231 -0.61005,1.3233 -1.2759,1.65705l-0.0018,-1.21605c-0.0492,-0.2532 -0.1035,-0.4473 -0.21645,-0.6819c-0.48225,-1.0026 -0.4608,-1.39755 -0.1971,-2.4588l0.1899,-0.23565l0.5499,-1.0299c0.42225,-0.64515 0.1011,-1.47825 0.47085,-2.2152z" id="Path 1" fill="#9c7a6c"/><path d="M822.90349,422.57642l0.5499,-1.0299c-0.2073,1.4505 -0.0003,2.98635 -0.32625,4.40625c-0.0492,-0.2532 -0.1035,-0.4473 -0.21645,-0.6819c-0.48225,-1.0026 -0.4608,-1.39755 -0.1971,-2.4588z" id="Path 1" fill="#bc9077"/><path d="M822.90349,422.57642c-0.1428,-2.0892 0.58215,-1.95 0.7209,-3.2583c0.02475,-0.234 -0.4425,-0.73455 -0.59085,-0.9393l0.09975,-0.108c0.3807,0.2412 0.5694,0.6804 0.79095,1.0605c-0.36975,0.73695 -0.0486,1.57005 -0.47085,2.2152z" id="Path 1" fill="#ddc199"/><path d="M833.46499,418.88897c1.64175,-0.1371 3.29355,-0.26745 4.94055,-0.17595l0.1779,0.0393c0.8061,0.17085 2.63835,0.07365 3.25785,0.4518c0.1605,0.09795 0.2415,0.28845 0.3615,0.43275c0.6765,0.4335 1.584,0.3888 2.148,0.9147c-0.4755,0.5271 -0.756,0.5448 -1.4265,0.681c-0.945,0.2274 -3.0564,-0.44955 -4.15845,-0.5448c-0.8742,-0.07545 -1.76895,-0.02775 -2.64525,-0.00345c-0.98445,-0.0984 -1.83135,0.0762 -2.766,0.3765c-0.46575,0.2289 -0.95925,0.43875 -1.39575,0.7191c-1.05135,0.3693 -2.0814,0.77685 -3.11235,1.19955c1.53915,-1.95075 3.0459,-2.4984 4.6185,-4.0905z" id="Path 1" fill="#5e3833"/><path d="M833.46499,418.88897c1.64175,-0.1371 3.29355,-0.26745 4.94055,-0.17595l0.1779,0.0393c0.8061,0.17085 2.63835,0.07365 3.25785,0.4518c0.1605,0.09795 0.2415,0.28845 0.3615,0.43275c-2.8281,-0.6594 -8.1783,-0.34125 -10.69875,1.13835c-0.3636,0.2133 -0.67185,0.4698 -0.83265,0.86895l0.0891,0.1515c0.82575,-0.2394 1.7703,-0.9018 2.5941,-0.73485c-0.46575,0.2289 -0.95925,0.43875 -1.39575,0.7191c-1.05135,0.3693 -2.0814,0.77685 -3.11235,1.19955c1.53915,-1.95075 3.0459,-2.4984 4.6185,-4.0905z" id="Path 1" fill="#9a635a"/><path d="M827.42149,412.61762c0.0657,-0.00045 0.1314,0.0003 0.19725,-0.00105c0.52335,-0.0108 0.9486,-0.2601 1.45575,-0.10215c-0.0705,0.9105 -0.1359,3.3075 -0.84165,3.94095c-1.09455,0.9825 -2.18775,0.2991 -2.41215,2.30805c-0.1497,1.3404 0.32445,2.9844 -0.5259,4.1415c-0.17235,0.36915 -0.32985,0.75135 -0.54225,1.0992c0.2676,-1.7631 0.24525,-3.5304 0.56565,-5.29245l0.4515,-0.99135c-0.0987,-0.9576 0.08865,-1.91835 0.30315,-2.84685c-0.852,0.10335 -1.7997,0.1197 -2.5638,0.53175c-0.2214,-0.1101 -0.11595,-0.08955 -0.3546,-0.0879c-0.29895,0.00225 -0.1026,0.01995 -0.4554,-0.0444c-0.1623,-0.2778 -0.18585,-0.22845 -0.14355,-0.5775c0.2295,-0.2277 0.1629,-0.1494 0.34065,-0.36465c0.03675,-0.0444 0.07245,-0.0894 0.1086,-0.13425l0.5238,-0.8379l0.7536,-0.519c0.54075,0.09045 1.03035,0.0405 1.57365,-0.01005l0.9999,-0.18345z" id="Path 1" fill="#e2ac94"/><path d="M826.85569,412.64612c0.83295,0.3105 1.13115,0.2985 1.96935,0.02715l0.05145,0.2103c-0.50475,0.52695 -1.45065,0.31665 -1.9308,0.87615c-0.9264,1.0797 -0.102,2.85465 -1.176,3.9606c-0.0987,-0.9576 0.08865,-1.91835 0.30315,-2.84685c-0.852,0.10335 -1.7997,0.1197 -2.5638,0.53175c-0.2214,-0.1101 -0.11595,-0.08955 -0.3546,-0.0879c-0.29895,0.00225 -0.1026,0.01995 -0.4554,-0.0444c-0.1623,-0.2778 -0.18585,-0.22845 -0.14355,-0.5775c0.2295,-0.2277 0.1629,-0.1494 0.34065,-0.36465c0.03675,-0.0444 0.07245,-0.0894 0.1086,-0.13425l0.5238,-0.8379l0.7536,-0.519c0.54075,0.09045 1.03035,0.0405 1.57365,-0.01005z" id="Path 1" fill="#c5a890"/><path d="M825.85579,412.82957c0.27675,0.12405 0.3621,0.102 0.513,0.37755c-0.2769,0.3867 -0.59715,0.5319 -1.0677,0.60795c-0.18825,0.0303 -0.3801,0.0474 -0.57,0.06495c-0.3234,0.35565 -0.56955,0.61125 -1.0053,0.8217c-0.2346,-0.00525 -0.3237,0.0543 -0.4944,-0.1248c-0.1788,-0.18765 -0.1173,-0.1125 -0.22665,-0.3804l0.5238,-0.8379l0.7536,-0.519c0.54075,0.09045 1.03035,0.0405 1.57365,-0.01005z" id="Path 1" fill="#bc9077"/><path d="M825.72379,406.82372c0.1083,0.65685 0.1194,1.368 0.2712,2.00745l0.27975,-0.00705l-0.0783,0.747c-0.23085,0.83985 -1.08675,2.33745 -0.82635,3.09615l0.43785,0.08085c-0.5433,0.05055 -0.98505,0.18195 -1.5258,0.0915l-0.7536,0.519c-0.15075,-0.1122 -0.28725,-0.29055 -0.48705,-0.261c-0.35235,0.05205 -0.70035,0.37215 -0.9858,0.5766l-0.49245,-0.16785c0.4611,-0.6486 0.9138,-1.2456 1.16625,-2.0109l0.5037,-0.57c0.0888,-0.7662 0.50205,-1.0089 1.0629,-1.48065c-0.1647,-0.2001 -0.3891,-0.3465 -0.5937,-0.5049c0.34005,-0.72405 1.44285,-1.51485 2.0214,-2.1162z" id="Path 1" fill="#a89187"/><path d="M825.99499,408.83117l0.27975,-0.00705l-0.0783,0.747c-0.23085,0.83985 -1.08675,2.33745 -0.82635,3.09615l0.43785,0.08085c-0.5433,0.05055 -0.98505,0.18195 -1.5258,0.0915l-0.7536,0.519c-0.15075,-0.1122 -0.28725,-0.29055 -0.48705,-0.261c-0.35235,0.05205 -0.70035,0.37215 -0.9858,0.5766l-0.49245,-0.16785c0.4611,-0.6486 0.9138,-1.2456 1.16625,-2.0109c-0.015,0.16815 -0.0348,0.33645 -0.0375,0.50535c-0.00585,0.37335 -0.03825,0.39075 0.23265,0.657c0.96705,-0.25275 1.6428,-1.6143 2.31525,-2.334l0.1032,-0.10875c0.31665,-0.318 0.55785,-0.94485 0.6519,-1.3839z" id="Path 1" fill="#c5a890"/><path d="M826.27474,408.82412c-0.00525,-0.95925 0.2079,-1.4307 0.67905,-2.2467c0.0543,0.975 0.2586,2.09175 0.0354,3.04035c-0.01515,0.06435 -0.02805,0.129 -0.04335,0.19335c-0.00915,0.03855 -0.0201,0.07665 -0.03015,0.11505c0.1293,0.90315 0.1914,1.83075 0.5058,2.69145l-0.5658,0.0285l-1.04775,0.102l-0.43785,-0.08085c-0.2604,-0.7587 0.5955,-2.2563 0.82635,-3.09615z" id="Path 1" fill="#e3bda9"/><path d="M827.93419,403.61837l1.416,-0.24555c-0.57045,0.53595 -1.1565,1.29225 -1.82565,1.68165l-0.57075,1.52295c-0.47115,0.816 -0.6843,1.28745 -0.67905,2.2467l-0.27975,0.00705c-0.1518,-0.63945 -0.1629,-1.3506 -0.2712,-2.00745l0.4914,-0.8169c0.42885,-1.15095 0.6333,-1.7088 1.719,-2.38845z" id="Path 1" fill="#c5a890"/><path d="M825.29479,422.90492l-0.0075,0.25845c-0.03315,0.85755 -0.3933,1.7799 -0.3108,2.62725c0.0933,0.96015 1.0113,2.92215 0.52485,3.68115c-0.1476,-0.1935 -0.19275,-0.27615 -0.22335,-0.52185c-0.1377,-1.1049 -0.5226,-2.3808 -0.87315,-3.43815c0.1734,-0.47925 0.24795,-1.0074 0.3477,-1.50765c0.2124,-0.34785 0.3699,-0.73005 0.54225,-1.0992z" id="Path 1" fill="#e3bda9"/><path d="M820.88284,401.00762c1.76985,-3.3081 7.81035,-7.7334 11.45055,-8.9601c2.9208,-0.98415 6.6447,-2.0622 9.7374,-1.97955c1.932,0.0516 3.888,0.4134 5.817,0.58395c2.1345,0.1887 4.2255,0.1704 6.177,1.14375c1.5405,0.17265 3.9225,0.82155 5.283,1.59615c2.2335,1.27155 4.608,3.6918 6.189,5.68935c0.7605,0.96075 1.5405,2.0256 2.079,3.1299c1.794,2.0844 4.74,11.00235 4.5795,13.6956c-0.03,0.45945 -0.108,0.9147 -0.231,1.3584l-0.192,0.99525c-0.5025,2.51325 -1.1505,5.03325 -1.5705,7.5558c-0.441,1.38555 -0.9045,2.7603 -1.1835,4.1901c-0.0495,0.75225 -0.291,0.8742 -0.591,1.5291c0.351,0.5721 0.2595,1.1862 0.1215,1.8219c-0.2385,1.101 -0.804,2.09115 -1.3695,3.05055c-0.441,-0.078 -0.7455,-0.051 -1.185,0.0345c-0.219,0.0435 -0.249,-0.015 -0.444,-0.1095l-0.1515,-0.021c0.0315,-0.6834 0.3615,-1.20765 -0.081,-1.8552c-0.126,-0.18465 -0.21,-0.29205 -0.303,-0.49185l-0.105,-0.2277l-0.1425,-0.024c-0.4485,1.08735 -0.303,2.85225 -0.516,4.06125c-0.12,-0.78 -0.2175,-5.1519 0.1095,-5.748c0.1365,-0.24645 0.2535,-0.4062 0.237,-0.7017c-0.1125,-1.9818 -1.0065,-3.9591 -0.633,-6.0078c0.075,-0.40725 0.267,-0.53415 0.5775,-0.7815l-0.4155,-0.99405c-0.0375,-0.2136 -0.072,-0.4275 -0.1485,-0.6318c-0.5235,-1.3863 -1.7775,-1.93605 -3.0345,-2.4981l0.447,0.08475c-0.6945,-0.24765 -2.0265,-0.49185 -2.52,-0.9747c0.264,-2.02275 -0.651,-3.95115 -0.3195,-5.9565l0.2265,-0.1248c0.1635,0.0681 0.2925,0.1203 0.4305,0.2325c1.0605,0.8604 1.4325,1.51545 1.632,2.8344l0.2115,-0.16365c0.057,-0.27525 0.1425,-0.58365 0.0795,-0.8661c-0.1875,-0.82395 -1.2345,-1.63215 -1.9185,-2.0778c-1.398,-0.9096 -0.54,-2.45685 -0.9885,-3.8553c-0.0045,0.01665 -0.132,6.02955 -0.1065,6.3042c0.1065,1.09425 0.4545,2.181 0.54,3.29625l-0.174,0.12225c-0.345,-0.1065 -0.657,-0.1479 -0.864,-0.4794c-0.1935,-0.31125 -0.714,-10.1943 -1.386,-10.95795c-0.9255,0.56835 -2.8545,4.9731 -3.7065,6.2319c-0.306,-0.3411 1.731,-2.92245 1.716,-3.69585c-0.2505,0.05655 -0.537,0.4704 -0.72,0.66435l-0.1485,-0.0444c1.7115,-2.7063 1.692,-3.9324 2.439,-6.8556c0.1305,-0.51135 0.4305,-0.92925 0.51,-1.4562l-0.228,-0.2331c-0.3315,-0.4482 -0.582,-0.75135 -1.062,-1.04085l-0.6795,-0.52995l-1.1055,0.0795c-0.3885,-0.1482 -1.0755,-0.32445 -1.374,-0.60255c-0.3495,-0.32565 -0.2505,-0.59805 -0.2265,-1.01925l-0.285,-0.23295c-0.3585,0.06825 -0.5355,0.1821 -0.8655,-0.00615c0.132,-0.30465 0.24,-0.48375 0.2145,-0.82425c-0.318,0.0774 -0.5175,0.1509 -0.8445,0.0657c-0.0615,-0.01635 -0.1215,-0.04305 -0.1815,-0.0645l-0.459,0.34635l-0.1215,0.32865c0.246,0.44445 0.303,0.62745 0.1575,1.12815c-0.108,0.3675 -0.2985,0.7866 -0.522,1.0986c-0.3465,0.3276 -0.4845,0.49965 -1.0005,0.4944c-0.387,-0.0039 -0.78,-0.0906 -1.1685,-0.1155l-0.702,0.144c-0.9465,0.4158 -2.6655,0.1767 -3.636,-0.10875c-1.41,0.27975 -2.85825,-0.267 -4.28055,-0.40965c-0.87225,-0.0873 -1.73715,-0.0366 -2.60985,0.01815c0.9003,0.048 1.8,0.10905 2.69865,0.1833c-0.9744,0.2352 -2.0031,0.67095 -3.0081,0.47925l-0.11295,-0.3213l-0.25095,-0.21795c-0.45825,-0.2811 -0.75765,-0.35985 -1.2957,-0.3393c-1.07115,0.04095 -2.1318,0.1281 -3.19845,0.2343c-0.3387,0.108 -0.67545,0.21825 -1.02075,0.30435l-0.9645,0.22125c-0.67545,-0.59115 -1.1793,-0.59175 -2.04555,-0.669c-0.38775,-0.06135 -0.7803,-0.16665 -1.16445,-0.25065c-1.10265,-0.2385 -1.82625,-0.40095 -2.8848,0.1023c-0.17925,0.0852 -0.3648,0.1599 -0.55935,0.19785z" id="Path 1" fill="#e3bda9"/><path d="M820.88284,401.00762c1.76985,-3.3081 7.81035,-7.7334 11.45055,-8.9601c2.9208,-0.98415 6.6447,-2.0622 9.7374,-1.97955c1.932,0.0516 3.888,0.4134 5.817,0.58395c2.1345,0.1887 4.2255,0.1704 6.177,1.14375l-0.126,-0.0192c-0.6885,-0.1104 -1.332,-0.42615 -2.031,-0.38565c-0.7935,1.0095 -2.2665,3.56835 -2.0865,4.89375c0.009,0.06765 0.024,0.1344 0.036,0.2016l0.1515,0.09945l0.153,-0.1116c1.194,-0.85965 4.806,-3.4392 6.174,-3.3012c0.234,0.02355 0.165,0.01545 0.3105,0.21645c-0.9495,0.3177 -1.833,0.36435 -2.6535,1.04325c0.006,0.075 0.0135,0.15 0.018,0.22515c0.0195,0.3234 0.0525,0.58605 -0.1755,0.831c-0.7485,0.80235 -2.934,1.19235 -3.183,2.3238c0.645,0.171 1.2915,-0.2007 1.851,-0.5184c0.5025,-0.2853 0.999,-0.6621 1.4205,-1.05375l0.2565,0.0744c-0.1005,0.3543 -0.1605,0.57135 -0.489,0.77745c-0.7005,0.43905 -1.8855,0.53745 -2.3835,1.2114l-0.0765,0.45465l0.132,0.3363c-0.3585,0.06825 -0.5355,0.1821 -0.8655,-0.00615c0.132,-0.30465 0.24,-0.48375 0.2145,-0.82425c-0.318,0.0774 -0.5175,0.1509 -0.8445,0.0657c-0.0615,-0.01635 -0.1215,-0.04305 -0.1815,-0.0645l-0.459,0.34635l-0.1215,0.32865c0.246,0.44445 0.303,0.62745 0.1575,1.12815c-0.108,0.3675 -0.2985,0.7866 -0.522,1.0986c-0.3465,0.3276 -0.4845,0.49965 -1.0005,0.4944c-0.387,-0.0039 -0.78,-0.0906 -1.1685,-0.1155l-0.702,0.144c-0.9465,0.4158 -2.6655,0.1767 -3.636,-0.10875c-1.41,0.27975 -2.85825,-0.267 -4.28055,-0.40965c-0.87225,-0.0873 -1.73715,-0.0366 -2.60985,0.01815c0.9003,0.048 1.8,0.10905 2.69865,0.1833c-0.9744,0.2352 -2.0031,0.67095 -3.0081,0.47925l-0.11295,-0.3213l-0.25095,-0.21795c-0.45825,-0.2811 -0.75765,-0.35985 -1.2957,-0.3393c-1.07115,0.04095 -2.1318,0.1281 -3.19845,0.2343c-0.3387,0.108 -0.67545,0.21825 -1.02075,0.30435l-0.9645,0.22125c-0.67545,-0.59115 -1.1793,-0.59175 -2.04555,-0.669c-0.38775,-0.06135 -0.7803,-0.16665 -1.16445,-0.25065c-1.10265,-0.2385 -1.82625,-0.40095 -2.8848,0.1023c-0.17925,0.0852 -0.3648,0.1599 -0.55935,0.19785z" id="Path 1" fill="#bcb9b7"/><path d="M821.53699,401.11412c0.081,-0.23775 0.075,-0.14775 0.06735,-0.3822c-0.00165,-0.05205 -0.00645,-0.1041 -0.00975,-0.156c0.30315,-0.6438 0.62925,-0.8979 1.2711,-1.17975l0.22575,-0.0972c1.5045,-0.66135 8.3568,-2.65545 9.7092,-2.37645c0.74595,0.15405 1.41285,0.76305 2.20155,0.9486l0.2151,-0.13635c-0.97935,-0.70635 -2.2551,-1.73595 -3.51285,-1.64565c-0.0711,0.0051 -0.14175,0.01395 -0.2127,0.021c0.05835,-0.0312 0.1131,-0.07035 0.17505,-0.0936c1.02255,-0.38355 2.51475,0.65925 3.444,0.9798c0.50925,0.1758 0.67905,0.0702 1.134,-0.1413l0.19395,0.1062c-0.28335,0.44535 -0.4839,0.57735 -0.39885,1.11105c1.33395,0.1287 2.1537,-0.75555 3.52755,-0.22965c0.0939,0.036 0.1992,0.0363 0.29235,0.0741l-0.51735,0.3336l-0.09105,0.306c0.1851,0.22365 0.33,0.4137 0.55755,0.59355l0.50685,0.43575l0.315,0.0984c0.333,0.7461 1.035,1.32135 1.6035,1.8972c-1.41,0.27975 -2.85825,-0.267 -4.28055,-0.40965c-0.87225,-0.0873 -1.73715,-0.0366 -2.60985,0.01815c0.9003,0.048 1.8,0.10905 2.69865,0.1833c-0.9744,0.2352 -2.0031,0.67095 -3.0081,0.47925l-0.11295,-0.3213l-0.25095,-0.21795c-0.45825,-0.2811 -0.75765,-0.35985 -1.2957,-0.3393c-1.07115,0.04095 -2.1318,0.1281 -3.19845,0.2343c-0.3387,0.108 -0.67545,0.21825 -1.02075,0.30435l-0.9645,0.22125c-0.67545,-0.59115 -1.1793,-0.59175 -2.04555,-0.669c-0.38775,-0.06135 -0.7803,-0.16665 -1.16445,-0.25065c-1.10265,-0.2385 -1.82625,-0.40095 -2.8848,0.1023c-0.17925,0.0852 -0.3648,0.1599 -0.55935,0.19785z" id="Path 1" fill="url(#color-3)"/><path d="M836.03989,398.07227c1.33395,0.1287 2.1537,-0.75555 3.52755,-0.22965c0.0939,0.036 0.1992,0.0363 0.29235,0.0741l-0.51735,0.3336l-0.09105,0.306c0.1851,0.22365 0.33,0.4137 0.55755,0.59355l0.50685,0.43575l-0.0165,0.3045l-0.2145,0.1212c-1.41525,-0.4971 -2.7714,-1.14735 -4.0449,-1.93905z" id="Path 1" fill="#e3bda9"/><path d="M826.14559,401.06462c0.0588,0.00075 0.1176,0.00255 0.17655,0.00225c1.1064,-0.006 2.3634,-0.82755 3.38385,-0.474c0.1641,0.20265 0.324,0.39915 0.4704,0.61515c-0.3387,0.108 -0.67545,0.21825 -1.02075,0.30435l-0.9645,0.22125c-0.67545,-0.59115 -1.1793,-0.59175 -2.04555,-0.669z" id="Path 1" fill="#c5a890"/><path d="M845.07229,398.51252c0.024,-0.039 0.045,-0.07845 0.069,-0.11685c0.0345,-0.0561 0.072,-0.10995 0.105,-0.1665c0.513,-0.8727 1.2675,-0.5082 1.77,-1.6809l0.066,-0.1575l0.003,0.1506l0.069,-0.08145l0.0345,-0.1746c0.057,0.15945 0.0615,0.2037 0.183,0.35595c0.3525,0.4509 0.861,0.7551 1.425,0.85395c0.0435,0.0075 0.0885,0.01215 0.132,0.0183l-0.2925,0.47385l0.4305,0.11715c0.0585,0.1683 0.123,0.3327 0.1605,0.50715l-0.1215,0.32865c0.246,0.44445 0.303,0.62745 0.1575,1.12815c-0.108,0.3675 -0.2985,0.7866 -0.522,1.0986c-0.3465,0.3276 -0.4845,0.49965 -1.0005,0.4944c-0.387,-0.0039 -0.78,-0.0906 -1.1685,-0.1155l-0.702,0.144c-0.9465,0.4158 -2.6655,0.1767 -3.636,-0.10875c-0.5685,-0.57585 -1.2705,-1.1511 -1.6035,-1.8972c-0.1335,-0.23715 -0.183,-0.34845 -0.234,-0.6243l0.273,-0.0918l-0.105,0.2724c0.0285,-0.0318 0.051,-0.07035 0.0855,-0.09525c0.42,-0.2982 1.497,-0.2199 2.028,-0.24255l0.2355,0.26715c0.0705,-0.1884 0.1155,-0.3132 0.2595,-0.46035c0.162,-0.1662 0.5565,-0.07785 0.786,-0.0675c0.273,0.01215 0.3975,0.0075 0.666,-0.07635c0.0735,-0.02295 0.1455,-0.05055 0.219,-0.07575z" id="Path 1" fill="#9c7a6c"/><path d="M847.18279,398.11832c0.135,-0.2952 0.105,-0.3015 0.3945,-0.50445c0.306,0.1614 0.372,0.4659 0.522,0.77055l0.6,-0.09345l0.216,0.22335c-0.0495,0.66465 -0.5505,1.2459 -1.0365,1.6674c-0.186,0.16065 -0.3675,0.2508 -0.5955,0.3327c-0.1455,-0.2592 -0.102,-0.0957 -0.0405,-0.45105c0.105,-0.6099 0.0225,-1.335 -0.06,-1.94505z" id="Path 1" fill="#82706b"/><path d="M842.93029,396.44792l0.189,-0.32985c0.396,0.12465 0.5625,0.4275 0.831,0.73395c0.15,0.2352 0.258,0.37965 0.4755,0.55875c0.3585,0.2946 0.3555,0.5475 0.5445,0.9375c0.027,0.0582 0.069,0.1095 0.102,0.16425l-0.228,-0.0228c-0.0735,0.0252 -0.1455,0.0528 -0.219,0.07575c-0.2685,0.08385 -0.393,0.0885 -0.666,0.07635c-0.2295,-0.01035 -0.624,-0.0987 -0.786,0.0675c-0.144,0.14715 -0.189,0.27195 -0.2595,0.46035l-0.2355,-0.26715c-0.531,0.02265 -1.608,-0.05565 -2.028,0.24255c-0.0345,0.0249 -0.057,0.06345 -0.0855,0.09525l0.105,-0.2724l-0.273,0.0918c0.051,0.27585 0.1005,0.38715 0.234,0.6243l-0.315,-0.0984l-0.50685,-0.43575c-0.22755,-0.17985 -0.37245,-0.3699 -0.55755,-0.59355l0.09105,-0.306l0.58095,-0.2859l0.4014,0.06855c0.51,-0.0171 1.014,-0.0117 1.485,-0.23385c0.6195,-0.2919 0.888,-0.7314 1.1205,-1.3512z" id="Path 1" fill="url(#color-4)"/><path d="M840.32479,398.03297c0.51,-0.0171 1.014,-0.0117 1.485,-0.23385c0.6195,-0.2919 0.888,-0.7314 1.1205,-1.3512c-0.0015,0.6705 0.099,1.44225 -0.393,1.9701c-0.2475,0.26745 -0.5955,0.26175 -0.936,0.2499c-0.513,-0.018 -0.957,-0.0903 -1.461,0.06075l-0.33135,0.4212c-0.22755,-0.17985 -0.37245,-0.3699 -0.55755,-0.59355l0.09105,-0.306l0.58095,-0.2859z" id="Path 1" fill="#b3a7a6"/><path d="M848.92879,397.51352c0.291,-0.31785 0.5085,-0.43665 0.897,-0.6141c0.9285,-0.4239 1.752,-0.9582 2.745,-1.257l-0.0045,0.1998c-1.029,0.75105 -2.034,1.45965 -2.88,2.4231l-0.459,0.34635c-0.0375,-0.17445 -0.102,-0.33885 -0.1605,-0.50715l-0.4305,-0.11715z" id="Path 1" fill="#82706b"/><path d="M870.00829,414.77147c0.0225,-0.4794 0.0495,-0.95865 0.0795,-1.43775v0.10965l0.2925,0.0564c0.228,0.7482 0.4695,1.446 0.474,2.2368c0.471,0.30495 0.873,1.0278 1.11,1.5285l-0.192,0.99525c-0.5025,2.51325 -1.1505,5.03325 -1.5705,7.5558c-0.441,1.38555 -0.9045,2.7603 -1.1835,4.1901c-0.0495,0.75225 -0.291,0.8742 -0.591,1.5291l-0.222,0.0231c-0.579,-0.4551 -1.4535,-1.05075 -2.199,-1.05285l0.054,-0.1752c-0.354,-0.6255 -0.3885,-1.49985 -0.3435,-2.2017c0.078,-0.87405 -0.117,-1.91475 -0.228,-2.7924l0.489,-0.0951c0.3945,-0.32535 0.4035,-0.42675 0.5565,-0.8958c-0.1245,-2.718 -0.3945,-5.4309 -0.156,-8.14725c0.108,-0.20775 0.138,-0.45885 0.1875,-0.68595c0.549,-0.462 1.215,-1.4538 1.851,-1.70205l0.297,0.25215l0.4185,-0.54555l0.738,1.1175z" id="Path 1" fill="url(#color-5)"/><path d="M870.00829,414.77147c0.0225,-0.4794 0.0495,-0.95865 0.0795,-1.43775v0.10965l0.2925,0.0564c0.228,0.7482 0.4695,1.446 0.474,2.2368c0.471,0.30495 0.873,1.0278 1.11,1.5285l-0.192,0.99525c-0.5025,2.51325 -1.1505,5.03325 -1.5705,7.5558l-0.1275,-0.07875c-0.507,-0.49215 0.0345,-1.04055 -0.3465,-2.0883c-0.3345,-1.31385 0.0165,-2.7741 -0.279,-4.14915c0.384,-0.42015 0.7155,-0.8313 1.023,-1.31085c-0.2355,-0.69615 -0.618,-1.36515 -0.7395,-2.09085l0.3165,-0.3915l0.33,-0.3822z" id="Path 1" fill="#ddc199"/><path d="M869.72779,423.64907c0.162,-0.444 0.144,-0.9408 0.2475,-1.40385c0.309,-1.44105 0.921,-2.7996 1.797,-3.9849c-0.5025,2.51325 -1.1505,5.03325 -1.5705,7.5558l-0.1275,-0.07875c-0.507,-0.49215 0.0345,-1.04055 -0.3465,-2.0883z" id="Path 1" fill="#e7d5c9"/><path d="M866.86279,429.66497c0.1695,-0.55845 0.2445,-1.1916 0.663,-1.60185l0.285,0.19605c0.5595,0.7602 0.3675,1.6767 0.402,2.5734c0.009,0.2451 0.006,0.48135 -0.0075,0.72585c-0.579,-0.4551 -1.4535,-1.05075 -2.199,-1.05285l0.054,-0.1752c-0.354,-0.6255 -0.3885,-1.49985 -0.3435,-2.2017l0.2505,0.89325c0.2565,0.00555 0.168,0.05295 0.297,-0.0525l0.1065,0.5574c0.2325,0.13995 0.2025,0.16725 0.492,0.13815z" id="Path 1" fill="#e2ac94"/><path d="M866.86279,429.66497c0.1695,-0.55845 0.2445,-1.1916 0.663,-1.60185l0.285,0.19605c0.0135,0.4488 0.114,1.0824 -0.1335,1.4634c-0.381,0.12375 -0.4425,0.0474 -0.8145,-0.0576z" id="Path 1" fill="#dd9c79"/><path d="M869.01829,430.00622c-0.042,-0.05865 -0.0855,-0.1158 -0.123,-0.17595c-0.3375,-0.52455 -0.3885,-1.9026 -0.264,-2.49795c0.012,-0.05715 0.0285,-0.1134 0.042,-0.1701c0.0375,-0.1527 0.0675,-0.2997 0.147,-0.438c0.246,-0.4305 0.783,-0.8517 1.254,-0.98685l0.1275,0.07875c-0.441,1.38555 -0.9045,2.7603 -1.1835,4.1901z" id="Path 1" fill="#a86951"/><path d="M866.53429,424.34537c0.1665,1.52325 -0.0855,3.1092 -0.27,4.62405c-0.129,0.10545 -0.0405,0.05805 -0.297,0.0525l-0.2505,-0.89325c0.078,-0.87405 -0.117,-1.91475 -0.228,-2.7924l0.489,-0.0951c0.3945,-0.32535 0.4035,-0.42675 0.5565,-0.8958z" id="Path 1" fill="#bc9077"/><path d="M869.13229,413.51672l0.738,1.1175c-0.087,0.18735 -0.1635,0.24345 -0.3165,0.37545l-0.2985,-0.03525c-0.345,-0.31665 -0.429,-0.4569 -0.5415,-0.91215z" id="Path 1" fill="#c5a890"/><path d="M867.61579,402.21107c1.794,2.0844 4.74,11.00235 4.5795,13.6956c-0.03,0.45945 -0.108,0.9147 -0.231,1.3584c-0.237,-0.5007 -0.6045,-1.1304 -1.0755,-1.43535c-0.0045,-0.7908 -0.2805,-1.58175 -0.5085,-2.32995l-0.2925,-0.0564v-0.10965c-0.03,0.4791 -0.057,0.95835 -0.0795,1.43775l-0.138,-0.13725l-0.738,-1.1175c-0.42,-0.6993 -0.9045,-1.6092 -1.6275,-2.01795c-0.7215,-1.35975 -1.4205,-2.8542 -2.373,-4.06605l0.5925,-0.44295c0.1515,-0.43515 0.033,-0.6597 -0.0735,-1.10115l0.1425,-0.03165c0.4545,0.05565 0.7635,0.2523 1.149,0.47835l0.33,-0.05475l0.0735,-0.2022l-0.045,-0.38415c-0.234,-0.22695 -0.4245,-0.4485 -0.6165,-0.71265c0.2145,-0.21675 0.3765,-0.2457 0.6615,-0.34095c0.3405,0.0357 0.4935,0.0471 0.795,0.2271c0.2955,0.17595 0.111,0.12525 0.4425,0.15165c-0.228,-0.54795 -0.9105,-0.6519 -1.227,-1.0956l0.1725,-0.18405c0.2895,0.11415 0.351,0.1338 0.6765,0.10515l-0.012,-0.3375c-0.2295,-0.3351 -0.5505,-0.7038 -0.588,-1.11915c-0.0045,-0.05895 0.0075,-0.11805 0.0105,-0.17715z" id="Path 1" fill="url(#color-6)"/><path d="M863.25229,405.71732c1.002,0.2343 1.335,0.92175 1.8795,1.7154c0.9525,1.21185 1.6515,2.7063 2.373,4.06605c0.723,0.40875 1.2075,1.31865 1.6275,2.01795l-0.4185,0.54555l-0.297,-0.25215c-0.636,0.24825 -1.302,1.24005 -1.851,1.70205c-0.0495,0.2271 -0.0795,0.4782 -0.1875,0.68595c-0.2385,2.71635 0.0315,5.42925 0.156,8.14725c-0.153,0.46905 -0.162,0.57045 -0.5565,0.8958l-0.489,0.0951c-0.225,-1.6656 -0.3,-3.35025 -0.399,-5.0271c-0.588,-2.27985 -0.708,-4.88205 -0.81,-7.2279c0.0585,-1.66875 -0.018,-3.1197 -0.201,-4.7772l0.0255,-0.74565c-0.45,-0.38775 -0.663,-1.28715 -0.852,-1.8411z" id="Path 1" fill="#9c7a6c"/><path d="M863.25229,405.71732c1.002,0.2343 1.335,0.92175 1.8795,1.7154c0.9525,1.21185 1.6515,2.7063 2.373,4.06605l-0.468,0.4269c-2.4645,-1.80285 -1.932,-3.55065 -2.9325,-4.36725c-0.45,-0.38775 -0.663,-1.28715 -0.852,-1.8411z" id="Path 1" fill="#82706b"/><path d="M864.07879,408.30407c1.4025,2.9049 0.633,4.5024 1.1955,7.15545l0.21,0.123c-0.012,0.0486 -0.024,0.09705 -0.0345,0.14595c-0.3165,1.4808 -0.396,3.07005 -0.36,4.5807c-0.588,-2.27985 -0.708,-4.88205 -0.81,-7.2279c0.0585,-1.66875 -0.018,-3.1197 -0.201,-4.7772z" id="Path 1" fill="#c5a890"/><path d="M867.50479,411.49877c0.723,0.40875 1.2075,1.31865 1.6275,2.01795l-0.4185,0.54555l-0.297,-0.25215c-0.636,0.24825 -1.302,1.24005 -1.851,1.70205c-0.0495,0.2271 -0.0795,0.4782 -0.1875,0.68595c-0.0855,-0.7809 -0.0645,-1.6968 0.0075,-2.4798c0.0585,-0.6486 0.123,-1.35135 0.651,-1.79265z" id="Path 1" fill="#c5a890"/><path d="M866.00629,430.50557c0.7455,0.0021 1.62,0.59775 2.199,1.05285l0.222,-0.0231c0.351,0.5721 0.2595,1.1862 0.1215,1.8219c-0.2385,1.101 -0.804,2.09115 -1.3695,3.05055c-0.441,-0.078 -0.7455,-0.051 -1.185,0.0345c-0.219,0.0435 -0.249,-0.015 -0.444,-0.1095c0.3975,-1.17315 0.768,-2.3121 0.9945,-3.5331c-0.066,-0.16905 -0.1275,-0.33855 -0.192,-0.50835c-0.2385,-0.6375 -0.3765,-1.09905 -0.3465,-1.78575z" id="Path 1" fill="#c07d6c"/><path d="M862.62079,404.16152c-0.456,-1.5075 -2.0655,-2.76705 -2.928,-4.05825c-0.1935,-0.291 -0.2655,-0.33075 -0.195,-0.68625c0.438,-0.0516 0.873,-0.0765 1.1985,-0.4035c0.222,-0.22155 0.084,-0.14055 0.3405,-0.2901c0.2235,-0.1308 0.6345,0.0567 0.8865,0.11955l0.102,0.08565c0.63,0.51915 1.8225,0.91455 2.0745,1.7139c-0.3705,0.2025 -1.065,0.16425 -1.455,0.02205c-0.513,-0.186 -0.903,-0.72915 -1.383,-1.0101c-0.087,0.49005 -0.0165,0.8004 0.2685,1.2252c0.549,0.8148 1.2375,1.33515 1.5075,2.3157c0.0555,0.2061 0.1575,0.40995 0.1575,0.62535c-0.2265,0.1017 -0.4035,0.1551 -0.5745,0.3408z" id="Path 1" fill="#c5a890"/><path d="M863.19529,403.82072l0.2175,0.1611c0.1875,0.13635 0.36,0.2322 0.567,0.33285c0.7095,0.34545 1.194,0.96585 1.671,1.57395c0.1065,0.44145 0.225,0.666 0.0735,1.10115l-0.5925,0.44295c-0.5445,-0.79365 -0.8775,-1.4811 -1.8795,-1.7154c-0.2805,-0.4644 -0.441,-1.0461 -0.6315,-1.5558c0.171,-0.1857 0.348,-0.2391 0.5745,-0.3408z" id="Path 1" fill="#a89187"/><path d="M851.23129,398.75822c0.516,-0.11655 0.699,-0.21165 1.1835,0.11085c0.726,0.48255 1.218,1.71705 1.9395,2.0007l-1.1055,0.0795c-0.3885,-0.1482 -1.0755,-0.32445 -1.374,-0.60255c-0.3495,-0.32565 -0.2505,-0.59805 -0.2265,-1.01925l-0.285,-0.23295z" id="Path 1" fill="#b3a7a6"/><path d="M865.79329,405.85697l0.2715,-0.46005c0.3375,-0.063 0.357,-0.06225 0.657,0.1356c0.2325,0.1533 0.4245,0.3534 0.624,0.54585l-0.0735,0.2022l-0.33,0.05475c-0.3855,-0.22605 -0.6945,-0.4227 -1.149,-0.47835z" id="Path 1" fill="#c5a890"/><path d="M860.93479,396.60827c0.177,-0.01515 0.2535,-0.02715 0.444,-0.0147c0.3255,0.0213 0.612,0.057 0.804,0.318l-0.099,0.24c-0.546,0.4782 -1.11,0.5358 -1.7985,0.6666c-0.3945,-0.02205 -0.906,-0.01155 -1.278,-0.15315c-0.291,-0.11025 -0.3165,-0.14955 -0.4485,-0.4347c0.027,-0.0339 0.051,-0.07125 0.0825,-0.1017c0.321,-0.30945 0.798,-0.4569 1.2345,-0.4431c0.3285,0.01035 0.609,-0.00795 0.9345,-0.05745z" id="Path 1" fill="#c5a890"/><path d="M857.30029,466.95677c-0.006,-0.4845 -0.111,-0.873 0.1755,-1.272l0.5955,-0.0495c0.375,1.662 0.378,3.3285 0.6855,4.971c0.045,-0.4185 0.132,-0.6735 0.306,-1.047c1.128,3.3765 3.2715,6.2745 6.5385,7.8735c2.3835,1.164 5.2365,1.7295 7.773,2.493c-3.498,2.643 -7.2945,4.8675 -11.3115,6.627c-1.1925,0.5205 -2.46,0.8835 -3.642,1.404c-0.636,0.207 -1.2705,0.4215 -1.902,0.645l-0.237,0.0765c-0.81,0.15 -1.6185,0.3 -2.4225,0.4815c-0.9105,0.3915 -1.6215,0.4785 -2.5965,0.516l-0.6825,0.2175l-0.189,-0.1515l0.0165,-0.414c-0.264,-0.0735 -0.369,-0.078 -0.627,0.015c-0.054,0.2295 -0.0735,0.645 -0.2805,0.768c-1.005,0.597 -4.521,1.05 -5.646,0.672c-0.174,-0.0585 -0.237,-0.111 -0.3765,-0.204c-0.6315,-0.612 -1.341,-1.155 -1.983,-1.7655c-0.8715,-1.0395 -1.5219,-2.427 -2.59455,-3.261l-0.0192,-0.654l1.47225,-0.7575c0.18,-0.312 1.131,-0.7875 1.449,-0.9975c1.0605,-0.7065 1.9785,-1.395 2.8815,-2.2995l0.0855,-0.324l0.423,0.18l0.7155,-0.159c2.262,-0.5865 4.143,-1.17 5.985,-2.658c3.3615,-2.7165 4.9905,-5.559 5.445,-9.8415c0.0345,-0.354 -0.0165,-0.729 -0.0375,-1.0845z" id="Path 1" fill="#fefefe"/><path d="M858.75679,470.60627c0.045,-0.4185 0.132,-0.6735 0.306,-1.047c1.128,3.3765 3.2715,6.2745 6.5385,7.8735c2.3835,1.164 5.2365,1.7295 7.773,2.493c-3.498,2.643 -7.2945,4.8675 -11.3115,6.627c-1.1925,0.5205 -2.46,0.8835 -3.642,1.404l0.2475,-6.1815c0.363,-3.771 0.453,-7.395 0.0885,-11.169z" id="Path 1" fill="#212735"/><path d="M845.19229,480.69977l0.7155,-0.159c0.2955,0.5025 0.438,0.6375 0.9975,0.8475c0.444,0.1545 1.1385,0.297 1.446,0.6615c1.8825,1.11 3.651,2.5485 5.358,3.912l0.507,0.525c-0.3945,0.507 -0.612,1.6875 -0.5385,2.337c0.0225,0.201 0.0345,0.1575 0.1815,0.336c-0.9105,0.3915 -1.6215,0.4785 -2.5965,0.516l-0.6825,0.2175l-0.189,-0.1515l0.0165,-0.414c-0.264,-0.0735 -0.369,-0.078 -0.627,0.015c-0.054,0.2295 -0.0735,0.645 -0.2805,0.768c-1.005,0.597 -4.521,1.05 -5.646,0.672c-0.174,-0.0585 -0.237,-0.111 -0.3765,-0.204c-0.6315,-0.612 -1.341,-1.155 -1.983,-1.7655c-0.8715,-1.0395 -1.5219,-2.427 -2.59455,-3.261l-0.0192,-0.654l1.47225,-0.7575c0.18,-0.312 1.131,-0.7875 1.449,-0.9975c1.0605,-0.7065 1.9785,-1.395 2.8815,-2.2995l0.0855,-0.324z" id="Path 1" fill="#212735"/><path d="M845.19229,480.69977l0.7155,-0.159c0.2955,0.5025 0.438,0.6375 0.9975,0.8475c0.444,0.1545 1.1385,0.297 1.446,0.6615c0.066,0.957 0.654,1.215 0.27,2.2275c-0.333,0.621 -0.6165,1.2645 -1.1535,1.7355c-0.3195,0.093 -0.363,0.093 -0.684,0.003c-1.5495,-0.369 -5.022,-0.228 -6.0495,-1.416c-0.129,-0.1485 -0.2475,-0.309 -0.381,-0.459c0.18,-0.312 1.131,-0.7875 1.449,-0.9975c1.0605,-0.7065 1.9785,-1.395 2.8815,-2.2995l0.0855,-0.324z" id="Path 1" fill="#b3a7a6"/><path d="M846.78379,486.01577c-0.0345,-0.738 -0.3165,-0.963 -0.5625,-1.596c-0.135,-0.3465 0.0015,-0.606 0.1485,-0.912c0.3225,-0.213 0.6015,-0.2805 0.984,-0.234c0.5475,0.066 0.921,0.6105 1.2675,1.0035c-0.333,0.621 -0.6165,1.2645 -1.1535,1.7355c-0.3195,0.093 -0.363,0.093 -0.684,0.003z" id="Path 1" fill="#d8d0d4"/><path d="M845.19229,480.69977l0.7155,-0.159c0.2955,0.5025 0.438,0.6375 0.9975,0.8475l-0.2535,0.3165c-0.426,0.0945 -0.807,0.141 -1.077,0.5235c-0.0975,0.1395 -0.132,0.222 -0.204,0.3675c-0.7635,0.2325 -1.566,0.36 -2.3475,0.5175c0.5205,-0.5565 1.7535,-1.302 1.9005,-2.043l-0.24,-0.2265l0.0855,-0.324z" id="Path 1" fill="#d8d0d4"/><path d="M846.65179,481.70477c0.3885,0.183 0.5925,0.2325 0.8445,0.588c-0.219,0.318 -0.5115,0.372 -0.894,0.417c-0.3915,0.0465 -0.849,-0.0405 -1.2315,-0.114c0.072,-0.1455 0.1065,-0.228 0.204,-0.3675c0.27,-0.3825 0.651,-0.429 1.077,-0.5235z" id="Path 1" fill="#fefefe"/><path d="M853.70929,485.96177l0.507,0.525c-0.3945,0.507 -0.612,1.6875 -0.5385,2.337c0.0225,0.201 0.0345,0.1575 0.1815,0.336c-0.9105,0.3915 -1.6215,0.4785 -2.5965,0.516c1.5165,-0.8775 1.8255,-2.2005 2.4465,-3.714z" id="Path 1" fill="#d8d0d4"/><path d="M856.51879,488.60177c0.4785,-1.0095 0.2115,-2.241 0.546,-3.3195c0.3675,-1.1835 1.119,-2.232 1.5615,-3.393c0.015,-0.0375 0.0285,-0.0765 0.042,-0.114l-0.2475,6.1815c-0.636,0.207 -1.2705,0.4215 -1.902,0.645z" id="Path 1" fill="#d8d0d4"/><path d="M853.85929,489.15977c-0.147,-0.1785 -0.159,-0.135 -0.1815,-0.336c-0.0735,-0.6495 0.144,-1.83 0.5385,-2.337c0.7335,0.693 1.3965,1.437 2.0655,2.1915c-0.81,0.15 -1.6185,0.3 -2.4225,0.4815z" id="Path 1" fill="#5e3833"/><path d="M854.40979,480.44927c0.3195,0.012 0.5505,-0.0465 0.804,0.1605c0.2295,0.189 0.4635,0.3675 0.699,0.5475c0.0795,-0.3345 -0.4005,-0.5805 -0.333,-1.035c0.327,-0.084 0.585,-0.057 0.879,0.1305c0.342,0.219 0.5055,0.624 0.549,1.0125c0.108,0.9585 0.003,1.7415 -0.63,2.484c-0.0495,0.057 -0.099,0.114 -0.1485,0.1695c-0.684,0.558 -1.4625,1.11 -2.391,1.026c-0.426,-0.039 -0.7665,-0.246 -1.095,-0.504c-0.306,-0.228 -0.6825,-0.471 -0.855,-0.822c-0.3045,-0.618 -0.4785,-2.1645 -0.144,-2.778c0.195,-0.3585 0.3165,-0.3855 0.678,-0.501c0.3045,0.219 0.1395,0.7515 0.2205,1.14c0.279,-0.0255 0.4815,0.012 0.7545,0.0795c0.297,-0.4545 0.6015,-0.759 1.0125,-1.11z" id="Path 1" fill="#d8d0d4"/><path d="M854.40979,480.44927c0.5115,0.309 1.1115,0.639 1.3215,1.2405c0.1455,0.4155 0.036,0.846 -0.207,1.197c-0.153,0.2205 -0.354,0.405 -0.546,0.591c-0.582,0.0825 -1.0395,0.054 -1.5285,-0.282c-0.2925,-0.435 -0.2895,-0.726 -0.285,-1.2435l0.2325,-0.393c0.297,-0.4545 0.6015,-0.759 1.0125,-1.11z" id="Path 1" fill="#212735"/><path d="M823.25149,451.61327l0.36255,-1.0635c0.05055,0.1665 0.03855,0.0615 -0.0186,0.2835c-0.36795,1.425 -1.24725,10.5435 -0.82245,11.469c0.27375,-0.1005 0.285,-0.156 0.5763,-0.0645c1.11015,-0.303 4.46385,-1.9185 5.23125,-1.8315c0.9831,0.111 2.5392,0.9945 3.405,1.488c0.5961,0.339 1.3056,0.7455 1.62945,1.3695l-0.1041,0.1275c-0.57615,-0.285 -1.1847,-1.1445 -1.7295,-1.3005c0.22305,0.48 0.0048,0.054 0.2322,0.4065c0.49335,0.7665 1.14195,3.174 1.73505,4.362c0.4143,0.8295 1.2477,1.4055 1.57545,2.2485c-0.324,0.378 -0.6078,0.477 -1.1034,0.528c-0.76725,0.0795 -1.77405,0.0345 -2.5272,-0.144c-0.71055,-0.168 -1.5948,-1.2225 -2.25405,-0.39c-0.0351,0.0435 -0.0636,0.093 -0.0954,0.1395c0.43815,0.459 1.2222,0.663 1.52295,1.185c-1.0182,-0.1935 -4.0917,-3.1725 -4.6398,-3.0465c-1.9125,-1.4025 -4.39275,-3.8955 -4.52115,-6.378c-0.04275,-0.825 0.39075,-2.0985 0.0045,-2.751l0.13005,-0.027c0.1152,-0.06 0.1491,-0.072 0.2655,-0.1575c1.19745,-0.8775 0.7533,-3.126 0.8181,-4.422c0.0339,-0.6795 0.1938,-1.365 0.3273,-2.031z" id="Path 1" fill="#e3bda9"/><path d="M838.20364,445.97177c0.27045,0.1695 0.6027,0.3225 0.8004,0.573c0.5367,0.7785 1.09125,1.233 2.03325,1.434l0.306,0.207c0.276,0.051 0.252,0.0255 0.483,0.2175c0.339,0.279 0.543,0.318 0.966,0.261c0.096,-0.0135 0.192,-0.03 0.288,-0.0435l0.9945,0.501c0.2865,0.258 0.6285,0.417 0.594,0.849c-0.003,0.0465 -0.0855,0.2775 -0.0975,0.3135c-0.102,0.3105 -0.135,0.5235 -0.003,0.843c0.2355,0.5715 1.392,1.107 1.953,1.3455c0.072,0.2505 0.0195,0.258 0.2655,0.3975c0.357,0.2025 0.7605,0.3165 1.1475,0.4455c-1.134,-0.093 -2.3115,-0.102 -3.429,-0.318c-0.177,-0.0345 -0.3225,-0.033 -0.501,-0.009c-0.1125,0.039 -0.3105,0.1035 -0.408,0.165c-0.588,0.3765 0.0345,2.22 -0.078,2.9445c-0.231,0.3045 -0.2625,0.3285 -0.624,0.4545c-0.9375,-0.3135 -1.8825,-0.1545 -2.85195,-0.198c-2.8662,-0.129 -1.7136,-1.6155 -2.4948,-2.2635c-0.4785,-0.3975 -1.37295,-0.312 -1.8225,-0.9015c-0.11145,-0.147 -0.05535,-0.2895 -0.0441,-0.462c0.48825,-0.24 1.00215,-0.021 1.54605,-0.1245c0.15105,-0.447 0.01515,-1.077 -0.03,-1.5495c-0.2565,-3.6765 1.05285,-2.016 1.68015,-3.873c-0.01935,-0.3525 -0.10785,-0.4815 -0.32175,-0.7575l-0.3519,-0.0195c-0.2754,0.1965 -0.5616,0.4185 -0.86265,0.5715c-0.3273,0.1665 -0.54045,0.165 -0.8721,0.0435c0.7611,-0.2385 1.1538,-0.5175 1.7349,-1.047z" id="Path 1" fill="#e3bda9"/><path d="M841.34329,448.18577c0.276,0.051 0.252,0.0255 0.483,0.2175c0.339,0.279 0.543,0.318 0.966,0.261c0.096,-0.0135 0.192,-0.03 0.288,-0.0435l0.9945,0.501c0.2865,0.258 0.6285,0.417 0.594,0.849c-0.003,0.0465 -0.0855,0.2775 -0.0975,0.3135c-0.102,0.3105 -0.135,0.5235 -0.003,0.843c0.2355,0.5715 1.392,1.107 1.953,1.3455c0.072,0.2505 0.0195,0.258 0.2655,0.3975c0.357,0.2025 0.7605,0.3165 1.1475,0.4455c-1.134,-0.093 -2.3115,-0.102 -3.429,-0.318c-0.177,-0.0345 -0.3225,-0.033 -0.501,-0.009c-0.315,0.0075 -0.576,-0.0045 -0.885,-0.072l-0.408,-0.798c-0.207,0.135 -0.195,0.201 -0.288,0.42l-0.2745,-0.192c-0.246,-0.7035 0.2415,-1.9605 0.5595,-2.61c0.024,-0.051 0.054,-0.099 0.0795,-0.147c-0.1785,-0.2685 -0.099,-0.207 -0.3195,-0.3615c-0.414,-0.2895 -0.708,-0.528 -1.0305,-0.9225c-0.0315,-0.0405 -0.063,-0.081 -0.0945,-0.12z" id="Path 1" fill="url(#color-7)"/><path d="M852.47629,422.69237c0.6945,0.01215 1.5105,-0.08655 2.1225,0.27105l0.348,0.64995c0.6045,0.0972 1.224,0.23145 1.8345,0.2661l0.147,0.10365c0.4395,0.1632 0.8835,0.3177 1.3125,0.50625c-0.1755,0.20835 -0.33,0.45405 -0.576,0.57705c0.627,0.47565 1.359,1.20435 2.0745,1.47975l-0.048,0.12285c0.546,0.24315 0.7965,0.42525 1.164,0.89835c0.1245,0.26625 0.237,0.42525 0.447,0.63075l-0.0195,0.1308c-0.0765,0.03195 -0.1545,0.06255 -0.2325,0.09615c-0.252,0.11025 -0.3855,0.23775 -0.576,0.4293c-0.7725,0.77265 -2.6985,0.77325 -3.7455,0.7533c-1.2165,-0.0231 -2.6445,-0.31275 -3.6315,-1.0503c-0.2025,-0.21375 -0.5205,-0.29265 -0.792,-0.40215c-0.504,0.06705 -0.6765,0.04965 -1.131,-0.17775c-0.567,-0.5403 -0.774,-0.58665 -1.068,-1.338c-0.069,-0.21435 -0.1875,-0.4962 -0.1965,-0.7191c-0.0165,-0.36975 0.0855,-0.48105 0.2985,-0.7488c0.582,-1.22625 1.0095,-1.90035 2.268,-2.4792z" id="Path 1" fill="url(#color-8)"/><path d="M852.47629,422.69237c0.6945,0.01215 1.5105,-0.08655 2.1225,0.27105l0.348,0.64995c-0.4485,0.35835 -0.72,0.69525 -0.9435,1.23045l-0.429,-0.07155c-0.681,0.501 -0.456,1.8555 -1.62,1.57785c-0.117,-0.02775 -0.2235,-0.1107 -0.321,-0.17685c-0.351,0.16425 -0.3825,0.16245 -0.561,0.5019c0.009,0.44595 0.039,0.86085 0.102,1.3023c-0.567,-0.5403 -0.774,-0.58665 -1.068,-1.338c-0.069,-0.21435 -0.1875,-0.4962 -0.1965,-0.7191c-0.0165,-0.36975 0.0855,-0.48105 0.2985,-0.7488c0.582,-1.22625 1.0095,-1.90035 2.268,-2.4792z" id="Path 1" fill="#5e3833"/><path d="M850.10629,426.63947c-0.069,-0.21435 -0.1875,-0.4962 -0.1965,-0.7191c-0.0165,-0.36975 0.0855,-0.48105 0.2985,-0.7488l0.177,0.42735c0.552,0.11925 1.1865,-0.45105 1.77,-0.50415c-0.057,0.44115 -0.285,0.71145 -0.522,1.0785c-0.351,0.16425 -0.3825,0.16245 -0.561,0.5019c0.009,0.44595 0.039,0.86085 0.102,1.3023c-0.567,-0.5403 -0.774,-0.58665 -1.068,-1.338z" id="Path 1" fill="#9a635a"/><path d="M854.94679,423.61337c0.6045,0.0972 1.224,0.23145 1.8345,0.2661l0.147,0.10365c0.4395,0.1632 0.8835,0.3177 1.3125,0.50625c-0.1755,0.20835 -0.33,0.45405 -0.576,0.57705c-0.2085,0.23145 -0.387,0.45285 -0.5805,0.6957c-0.4845,0.6072 -1.3155,0.60075 -2.028,0.68475c-0.399,-0.59295 -0.7935,-0.88995 -1.053,-1.60305c0.2235,-0.5352 0.495,-0.8721 0.9435,-1.23045z" id="Path 1" fill="#3b251e"/><path d="M852.30529,428.15522c0.0225,-0.4329 0.012,-0.4167 0.3255,-0.7167c1.6395,-0.43905 2.3565,1.09935 3.5835,1.09095c0.7005,-0.0048 1.4415,-0.3192 2.1795,-0.34245c-0.39,0.3645 -0.831,0.7236 -1.152,1.15005c-1.4415,-0.06735 -2.748,-0.46455 -4.1445,-0.7797c-0.2025,-0.21375 -0.5205,-0.29265 -0.792,-0.40215z" id="Path 1" fill="#9a635a"/><path d="M857.66479,425.06642c0.627,0.47565 1.359,1.20435 2.0745,1.47975l-0.048,0.12285c-0.813,0.31245 -1.6635,0.65655 -2.5455,0.67185c-0.8055,0.01395 -1.53,-0.3267 -2.0895,-0.894c0.7125,-0.084 1.5435,-0.07755 2.028,-0.68475c0.1935,-0.24285 0.372,-0.46425 0.5805,-0.6957z" id="Path 1" fill="#9a635a"/><path d="M857.30029,466.95677c-0.5385,-2.0895 -0.2895,-9.987 0.642,-12.1575c0.3555,-0.8265 1.239,-1.2795 1.53,-2.0265c0.027,-0.072 0.0495,-0.1455 0.0735,-0.2175c-0.0465,0.972 -0.3,2.4315 0.0525,3.324c-0.147,0.9 0.1185,2.031 -0.153,2.8245c0.441,1.1865 -0.0555,2.613 0.093,3.873c-0.7515,2.4825 -0.816,4.416 -0.4755,6.9825c-0.174,0.3735 -0.261,0.6285 -0.306,1.047c-0.3075,-1.6425 -0.3105,-3.309 -0.6855,-4.971l-0.5955,0.0495c-0.2865,0.399 -0.1815,0.7875 -0.1755,1.272z" id="Path 1" fill="#e3bda9"/><path d="M858.07129,465.63527l0.1275,-0.204c-0.1005,-1.3725 0.477,-2.994 0.5985,-4.4055c0.0495,-0.573 -0.105,-1.5525 0.108,-2.055c0.099,-0.231 0.3195,-0.207 0.54,-0.267c0.441,1.1865 -0.0555,2.613 0.093,3.873c-0.7515,2.4825 -0.816,4.416 -0.4755,6.9825c-0.174,0.3735 -0.261,0.6285 -0.306,1.047c-0.3075,-1.6425 -0.3105,-3.309 -0.6855,-4.971z" id="Path 1" fill="#c5a890"/><path d="M844.64179,447.34127l1.3185,0.258c0.792,-0.0165 1.7295,-0.2655 2.493,-0.09c1.5465,-0.129 2.85,0.033 4.3635,0.336c-0.4995,0.753 -1.2855,1.5675 -2.1825,1.824c-0.3285,0.093 -0.2115,0.0315 -0.51,0.0555c-0.159,0.012 -0.3615,0.036 -0.5085,0.102l-0.9525,0.342c0.2505,0.228 0.909,0.477 0.9585,0.6645c-0.9585,0.6555 -2.028,0.78 -2.9385,1.542c-0.048,0.0405 -0.108,0.0645 -0.162,0.0975c-0.561,-0.2385 -1.7175,-0.774 -1.953,-1.3455c-0.132,-0.3195 -0.099,-0.5325 0.003,-0.843c0.012,-0.036 0.0945,-0.267 0.0975,-0.3135c0.0345,-0.432 -0.3075,-0.591 -0.594,-0.849c0.06,-0.681 0.1935,-1.2075 0.567,-1.7805z" id="Path 1" fill="#c07d6c"/><path d="M848.45329,447.50927c1.5465,-0.129 2.85,0.033 4.3635,0.336c-0.4995,0.753 -1.2855,1.5675 -2.1825,1.824c-0.3285,0.093 -0.2115,0.0315 -0.51,0.0555c-0.159,0.012 -0.3615,0.036 -0.5085,0.102l-0.9525,0.342c-0.5325,-0.5685 -1.2975,-0.405 -1.5855,-0.7575c0.681,-0.597 1.95,-0.489 2.5455,-1.167l-0.159,-0.3165c-0.351,-0.1185 -0.6765,-0.264 -1.011,-0.4185z" id="Path 1" fill="#9a635a"/><path d="M857.51479,421.99832c0.537,0.072 0.981,0.16125 1.485,0.3627c1.0635,0.2406 2.166,0.6204 3.1425,1.1085c0.5025,0.27825 1.086,0.5367 1.494,0.94395c-1.0695,1.16295 0.735,3.8616 -1.9515,3.9345c-0.1665,0.0045 -0.246,-0.0057 -0.402,-0.01905l0.0195,-0.1308c-0.21,-0.2055 -0.3225,-0.3645 -0.447,-0.63075c-0.3675,-0.4731 -0.618,-0.6552 -1.164,-0.89835l0.048,-0.12285c-0.7155,-0.2754 -1.4475,-1.0041 -2.0745,-1.47975c0.246,-0.123 0.4005,-0.3687 0.576,-0.57705c-0.429,-0.18855 -0.873,-0.34305 -1.3125,-0.50625l-0.147,-0.10365c-0.054,-0.2088 -0.099,-0.33075 -0.231,-0.50655c-0.2805,-0.3741 -0.5385,-0.6063 -0.5625,-1.08105c0.4425,-0.3108 1.005,-0.27 1.527,-0.29355z" id="Path 1" fill="#bc9077"/><path d="M856.92829,423.98312c0.6135,-0.09735 1.2285,-0.183 1.845,-0.2568c0.453,0.29535 1.23,0.9447 1.758,0.99135l0.549,0.37845l0.006,0.28995c0.0075,0.27495 0.051,0.50415 0.114,0.7701c0.0885,0.37035 0.129,0.67665 -0.072,1.02495c-0.081,0.1359 -0.171,0.26505 -0.273,0.38625c-0.3675,-0.4731 -0.618,-0.6552 -1.164,-0.89835l0.048,-0.12285c-0.7155,-0.2754 -1.4475,-1.0041 -2.0745,-1.47975c0.246,-0.123 0.4005,-0.3687 0.576,-0.57705c-0.429,-0.18855 -0.873,-0.34305 -1.3125,-0.50625z" id="Path 1" fill="#894f44"/><path d="M858.24079,424.48937c0.573,0.4254 1.14,0.8406 1.6665,1.3248l0.12,0.333c-0.09,0.13995 -0.1695,0.2811 -0.288,0.399c-0.7155,-0.2754 -1.4475,-1.0041 -2.0745,-1.47975c0.246,-0.123 0.4005,-0.3687 0.576,-0.57705z" id="Path 1" fill="#5e3833"/><path d="M857.51479,421.99832c0.537,0.072 0.981,0.16125 1.485,0.3627c-0.072,0.01455 -0.141,0.03105 -0.213,0.04365c-0.717,0.1281 -1.884,-0.48405 -2.436,0.0531c0.0495,0.1695 0.0405,0.3123 0.2055,0.40875c0.213,0.1251 0.354,0.11355 0.591,0.1326c0.714,0.0573 0.876,0.32865 1.44,0.65775c0.057,0.0333 0.1245,0.0462 0.186,0.06945c-0.6165,0.0738 -1.2315,0.15945 -1.845,0.2568l-0.147,-0.10365c-0.054,-0.2088 -0.099,-0.33075 -0.231,-0.50655c-0.2805,-0.3741 -0.5385,-0.6063 -0.5625,-1.08105c0.4425,-0.3108 1.005,-0.27 1.527,-0.29355z" id="Path 1" fill="#9c7a6c"/><path d="M861.08029,425.09612c0.3495,0.6873 1.2675,2.0157 1.059,2.7792c-0.0465,0.16665 -0.042,0.16185 -0.1875,0.2283c-0.222,0.1026 -0.411,0.09165 -0.6495,0.0945c-0.21,-0.2055 -0.3225,-0.3645 -0.447,-0.63075c0.102,-0.1212 0.192,-0.25035 0.273,-0.38625c0.201,-0.3483 0.1605,-0.6546 0.072,-1.02495c-0.063,-0.26595 -0.1065,-0.49515 -0.114,-0.7701z" id="Path 1" fill="#9c7a6c"/><path d="M852.74179,420.20672c0.5205,-0.4152 1.614,-0.3369 2.2335,-0.2991l0.804,-0.0324c1.2315,0.08145 3.0195,0.1332 3.966,0.97035c0.825,0.4572 1.95,0.9123 2.4885,1.7064c0.0675,0.37605 0.036,0.55845 -0.0915,0.91755c-0.9765,-0.4881 -2.079,-0.8679 -3.1425,-1.1085c-0.504,-0.20145 -0.948,-0.2907 -1.485,-0.3627c-0.522,0.02355 -1.0845,-0.01725 -1.527,0.29355c0.024,0.47475 0.282,0.70695 0.5625,1.08105c0.132,0.1758 0.177,0.29775 0.231,0.50655c-0.6105,-0.03465 -1.23,-0.1689 -1.8345,-0.2661l-0.348,-0.64995c-0.612,-0.3576 -1.428,-0.2589 -2.1225,-0.27105l0.2295,-0.2769c-0.222,-0.7857 -0.1275,-1.4187 0.036,-2.20875z" id="Path 1" fill="url(#color-9)"/><path d="M852.74179,420.20672c0.5205,-0.4152 1.614,-0.3369 2.2335,-0.2991c-0.693,0.10245 -1.3605,0.1293 -1.9335,0.56205l-0.1155,0.29445c0.2775,0.468 0.9405,0.6222 1.437,0.7479c1.029,0.2601 2.1015,0.3564 3.1515,0.4863c-0.522,0.02355 -1.0845,-0.01725 -1.527,0.29355c0.024,0.47475 0.282,0.70695 0.5625,1.08105c0.132,0.1758 0.177,0.29775 0.231,0.50655c-0.6105,-0.03465 -1.23,-0.1689 -1.8345,-0.2661l-0.348,-0.64995c-0.612,-0.3576 -1.428,-0.2589 -2.1225,-0.27105l0.2295,-0.2769c-0.222,-0.7857 -0.1275,-1.4187 0.036,-2.20875z" id="Path 1" fill="#9a635a"/><path d="M839.57959,445.66877c1.1967,-0.1785 2.3862,-0.4005 3.6012,-0.3855c2.169,0.0285 4.326,0.528 6.4905,0.0585c0.411,0.444 0.5325,0.576 1.158,0.699l0.0795,0.108c-1.269,-0.066 -3.801,-0.066 -4.8585,0.684c-0.0375,0.027 -0.069,0.063 -0.1035,0.0945l0.0135,0.672l-1.3185,-0.258c-0.3735,0.573 -0.507,1.0995 -0.567,1.7805l-0.9945,-0.501c-0.096,0.0135 -0.192,0.03 -0.288,0.0435c-0.423,0.057 -0.627,0.018 -0.966,-0.261c-0.231,-0.192 -0.207,-0.1665 -0.483,-0.2175l-0.306,-0.207c-0.942,-0.201 -1.49655,-0.6555 -2.03325,-1.434l1.26525,0.048c-0.3615,-0.324 -0.8421,-0.333 -1.1865,-0.675c0.4647,-0.0165 0.9297,-0.0225 1.395,-0.018c-0.306,-0.156 -0.56205,-0.1845 -0.8982,-0.231z" id="Path 1" fill="#c07d6c"/><path d="M839.00404,446.54477l1.26525,0.048c1.137,0.5415 3.087,0.4965 4.3725,0.7485c-0.3735,0.573 -0.507,1.0995 -0.567,1.7805l-0.9945,-0.501c-0.096,0.0135 -0.192,0.03 -0.288,0.0435c-0.423,0.057 -0.627,0.018 -0.966,-0.261c-0.231,-0.192 -0.207,-0.1665 -0.483,-0.2175l-0.306,-0.207c-0.942,-0.201 -1.49655,-0.6555 -2.03325,-1.434z" id="Path 1" fill="#cf938c"/><path d="M840.26929,446.59277c-0.3615,-0.324 -0.8421,-0.333 -1.1865,-0.675c0.4647,-0.0165 0.9297,-0.0225 1.395,-0.018c1.5465,0.357 3.4275,0.5865 5.019,0.4725c1.863,-0.1335 3.423,-0.4875 5.3325,-0.3315l0.0795,0.108c-1.269,-0.066 -3.801,-0.066 -4.8585,0.684c-0.0375,0.027 -0.069,0.063 -0.1035,0.0945l0.0135,0.672l-1.3185,-0.258c-1.2855,-0.252 -3.2355,-0.207 -4.3725,-0.7485z" id="Path 1" fill="#9a635a"/><path d="M865.39879,436.31177l0.1515,0.021c0.195,0.0945 0.225,0.153 0.444,0.1095c0.4395,-0.0855 0.744,-0.1125 1.185,-0.0345c-0.4005,0.783 -0.786,1.545 -1.0755,2.3775c-0.147,0.8565 -0.306,1.695 -0.5295,2.5365c-0.609,1.4535 -1.6275,2.634 -1.6815,4.242c-0.633,1.0965 -1.227,2.265 -1.9905,3.2745c-0.1575,-1.3215 1.5285,-2.181 1.4505,-3.621l-0.489,0.8055l-0.105,-0.171c-0.0075,-0.5355 -0.066,-1.629 0.138,-2.136c0.1365,-0.3375 0.609,-0.5325 0.744,-0.9585c0.1725,-0.543 0.0915,-1.2255 0.3825,-1.722c0.159,-0.2715 0.576,-0.228 0.8175,-0.528c0.078,-0.8295 0.2865,-1.6335 0.3855,-2.4585c0.06,-0.5085 -0.0105,-1.0365 0.1155,-1.533c0.018,-0.0675 0.0375,-0.1365 0.057,-0.204z" id="Path 1" fill="#c5a890"/><path d="M863.89279,445.56377c-0.0855,-0.1845 -0.1695,-0.3675 -0.2445,-0.5565c-0.351,-0.879 0.2145,-2.6355 0.6195,-3.4875c0.162,-0.342 0.252,-0.4845 0.609,-0.6105l0.234,0.288l0.4635,0.1245c-0.609,1.4535 -1.6275,2.634 -1.6815,4.242z" id="Path 1" fill="#d8d0d4"/><path d="M865.11079,441.19727c0,-0.549 -0.051,-1.1985 0.1365,-1.7205c0.1695,-0.4725 0.4365,-0.525 0.8565,-0.6915c-0.147,0.8565 -0.306,1.695 -0.5295,2.5365z" id="Path 1" fill="#a89187"/><path d="M845.44129,422.00687l0.219,0.19785c0.0345,-0.0309 0.0645,-0.066 0.1005,-0.0924c0.282,-0.1995 0.687,-0.2373 1.0185,-0.30495c0.4305,0.24 0.546,0.5154 0.684,0.9843c0.3225,1.09725 0.819,2.99175 0.3075,4.0494c-0.0345,0.0693 -0.09,0.1257 -0.1275,0.19275c-0.489,0.86865 -0.171,2.85735 -0.1815,3.86745l-0.165,0.0426c-0.0735,-0.5508 -0.357,-0.84375 -0.3045,-1.4223c0.069,-0.73575 0.54,-1.85385 0.2595,-2.55435l-0.429,-0.0228c-0.3855,0.3594 -0.606,0.4713 -0.729,0.9924l-0.2025,0.0678c0.0105,-0.3735 0.0165,-0.61635 -0.117,-0.97305c-0.201,-1.5336 -0.4425,-3.489 -0.333,-5.0247z" id="Path 1" fill="#e3bda9"/><path d="M850.04629,427.45952c-0.1425,-0.17745 -0.204,-0.21495 -0.267,-0.4209c-0.144,-0.4689 -0.03,-0.9948 -0.0765,-1.48185c-0.0735,-0.7716 -0.3675,-1.52385 -0.405,-2.2992c-0.0195,-0.399 0.0285,-0.9054 0.237,-1.25265c0.6915,-1.15215 2.013,-2.0181 3.3255,-2.2548c0.723,-0.1305 2.3355,-0.2724 2.919,0.1251l-0.804,0.0324c-0.6195,-0.0378 -1.713,-0.1161 -2.2335,0.2991c-0.1635,0.79005 -0.258,1.42305 -0.036,2.20875l-0.2295,0.2769c-1.2585,0.57885 -1.686,1.25295 -2.268,2.4792c-0.213,0.26775 -0.315,0.37905 -0.2985,0.7488c0.009,0.2229 0.1275,0.50475 0.1965,0.7191z" id="Path 1" fill="#cf938c"/><path d="M852.74179,420.20672c-0.1635,0.79005 -0.258,1.42305 -0.036,2.20875l-0.2295,0.2769c-1.2585,0.57885 -1.686,1.25295 -2.268,2.4792c0.0375,-0.64305 -0.093,-1.30275 0.024,-1.9401c0.2805,-1.5351 1.842,-1.67985 2.5095,-3.02475z" id="Path 1" fill="#9c7a6c"/><path d="M838.40554,418.71302c1.88625,-0.13365 3.93075,-0.2892 5.51925,0.8727c0.195,0.1428 0.105,0.10725 0.3075,0.13845c0.3075,0.82215 0.8835,1.4682 1.209,2.2827c-0.1095,1.5357 0.132,3.4911 0.333,5.0247c-0.5625,-0.9699 -0.4035,-2.05815 -1.0815,-3.0324l-0.174,0.1224c-0.039,0.63465 0.0255,0.7758 -0.4095,1.26645c-0.048,-0.5013 -0.1035,-0.98925 -0.201,-1.4835c-0.294,-0.9258 -0.9225,-1.686 -0.984,-2.67195c0.6705,-0.1362 0.951,-0.1539 1.4265,-0.681c-0.564,-0.5259 -1.4715,-0.4812 -2.148,-0.9147c-0.12,-0.1443 -0.201,-0.3348 -0.3615,-0.43275c-0.6195,-0.37815 -2.45175,-0.28095 -3.25785,-0.4518z" id="Path 1" fill="#e2ac94"/><path d="M844.35079,420.55157l0.192,0.5058c-0.0315,0.06525 -0.063,0.1302 -0.0915,0.1959c-0.2115,0.47145 -0.384,0.8463 -0.201,1.3641c0.1755,0.495 0.4515,0.8316 0.4425,1.3818l-0.174,0.1224c-0.039,0.63465 0.0255,0.7758 -0.4095,1.26645c-0.048,-0.5013 -0.1035,-0.98925 -0.201,-1.4835c-0.294,-0.9258 -0.9225,-1.686 -0.984,-2.67195c0.6705,-0.1362 0.951,-0.1539 1.4265,-0.681z" id="Path 1" fill="#dd9c79"/><path d="M845.19229,480.69977l0.141,-0.45c1.251,-0.822 3.0915,-0.843 4.482,-1.488l0.2505,-0.1185c0.9075,-0.4185 1.575,-1.1595 2.2725,-1.857c2.196,-2.196 2.7645,-3.759 3.9255,-6.594c0.255,-0.6225 0.495,-1.422 0.906,-1.947c0.054,-0.069 0.1125,-0.1365 0.168,-0.204c-0.4545,4.2825 -2.0835,7.125 -5.445,9.8415c-1.842,1.488 -3.723,2.0715 -5.985,2.658z" id="Path 1" fill="#5e3833"/><path d="M853.74829,446.57177c0.5385,-0.24 0.9795,-0.549 1.572,-0.4605l0.1875,0.2085l-0.0885,0.2145c-0.8235,0.321 -2.0175,0.636 -2.6025,1.311c-1.5135,-0.303 -2.817,-0.465 -4.3635,-0.336c-0.7635,-0.1755 -1.701,0.0735 -2.493,0.09l-0.0135,-0.672c0.0345,-0.0315 0.066,-0.0675 0.1035,-0.0945c1.0575,-0.75 3.5895,-0.75 4.8585,-0.684c0.945,0.156 1.8915,0.297 2.8395,0.423z" id="Path 1" fill="#894f44"/><path d="M849.67129,445.34177c1.1505,-0.0195 3.0735,1.386 4.119,0.792l0.0165,-0.1485c0.0495,-0.402 0.093,-0.66 0.3255,-1.0065c0.3705,-0.219 0.423,-0.234 0.852,-0.2205c0.1485,0.3495 0.2415,0.684 0.336,1.05c0.2715,-0.0015 0.363,-0.021 0.6105,-0.0855c0.477,-0.123 0.8145,0 1.245,0.21c0.312,-0.387 0.66,-0.954 1.1295,-1.1415l0.2085,0.117c-0.078,0.045 -0.156,0.0885 -0.2325,0.135c-0.3705,0.231 -0.543,0.555 -0.7515,0.924c-0.027,0.048 -0.0585,0.0945 -0.084,0.1425c-0.396,0.744 0.1545,1.68 -0.198,2.3355c-0.0765,-0.321 -0.1035,-0.6195 -0.1215,-0.948c-0.5865,-0.1755 -1.02,0.5055 -1.668,0.3915l-0.0435,-0.1695l0.168,-0.0885c0.4965,-0.267 1.2435,-0.6135 1.419,-1.1955c-0.2865,-0.318 -0.303,-0.4245 -0.72,-0.4845c-0.405,0.4365 -0.4245,1.143 -0.897,1.4625c-0.831,-0.0045 -1.593,-0.0975 -2.2455,0.5205c-0.765,0.723 -1.4685,2.046 -2.6565,2.0685c-0.3165,0.006 -0.5775,-0.045 -0.867,-0.1755c0.147,-0.066 0.3495,-0.09 0.5085,-0.102c0.2985,-0.024 0.1815,0.0375 0.51,-0.0555c0.897,-0.2565 1.683,-1.071 2.1825,-1.824c0.585,-0.675 1.779,-0.99 2.6025,-1.311l0.0885,-0.2145l-0.1875,-0.2085c-0.5925,-0.0885 -1.0335,0.2205 -1.572,0.4605c-0.948,-0.126 -1.8945,-0.267 -2.8395,-0.423l-0.0795,-0.108c-0.6255,-0.123 -0.747,-0.255 -1.158,-0.699z" id="Path 1" fill="#9c7a6c"/><path d="M833.84839,444.00827c0.5964,0.432 1.40205,0.198 2.0319,0.612c0.3684,0.5835 1.0935,1.2375 1.7979,1.3635c0.17625,0.0315 0.3501,0.0075 0.52545,-0.012c-0.5811,0.5295 -0.9738,0.8085 -1.7349,1.047c-0.87735,-0.258 -1.06725,-0.378 -1.69425,-1.0305c-0.10305,-0.711 -0.60885,-1.338 -0.9261,-1.98z" id="Path 1" fill="#dd9c79"/><path d="M859.74529,420.84557c1.4805,0.21735 2.778,0.4983 3.732,1.76955c0.225,0.3033 0.441,0.61215 0.6495,0.9261l0.4155,0.99405c-0.3105,-0.0117 -0.6015,-0.0684 -0.906,-0.1218c-0.408,-0.40725 -0.9915,-0.6657 -1.494,-0.94395c0.1275,-0.3591 0.159,-0.5415 0.0915,-0.91755c-0.5385,-0.7941 -1.6635,-1.2492 -2.4885,-1.7064z" id="Path 1" fill="#894f44"/><path d="M850.10629,426.63947c0.294,0.75135 0.501,0.7977 1.068,1.338c0.4545,0.2274 0.627,0.2448 1.131,0.17775c0.2715,0.1095 0.5895,0.1884 0.792,0.40215c-0.4785,-0.01365 -0.792,-0.1878 -1.3065,-0.1098l-0.012,0.41805c0.6285,0.57465 1.7565,0.3633 2.517,0.888l-0.0105,0.1995c-0.7245,0.12105 -1.1685,-0.4404 -1.902,-0.384c0.066,0.4107 0.786,0.70365 1.005,1.12185c-0.0615,-0.0075 -0.1275,-0.0003 -0.1845,-0.02235c-1.38,-0.52155 -2.6715,-1.86 -3.1575,-3.2091z" id="Path 1" fill="#9c7a6c"/><path d="M845.89129,428.00462l0.2025,-0.0678l0.132,0.54915c-0.3915,1.2408 0.384,2.5725 0.0615,3.7911c-0.3495,-0.0897 -0.8535,-0.4458 -1.038,-0.76335c-0.558,-0.9558 0.4785,-2.3175 0.6135,-3.2637c0.012,-0.0816 0.0195,-0.16365 0.0285,-0.2454z" id="Path 1" fill="#f2bcae"/><path d="M835.88029,444.62027c1.41135,0.1755 2.3886,0.528 3.6993,1.0485c0.33615,0.0465 0.5922,0.075 0.8982,0.231c-0.4653,-0.0045 -0.9303,0.0015 -1.395,0.018c0.3444,0.342 0.825,0.351 1.1865,0.675l-1.26525,-0.048c-0.1977,-0.2505 -0.52995,-0.4035 -0.8004,-0.573c-0.17535,0.0195 -0.3492,0.0435 -0.52545,0.012c-0.7044,-0.126 -1.4295,-0.78 -1.7979,-1.3635z" id="Path 1" fill="#a86951"/><path d="M843.90829,423.90452c0.0975,0.49425 0.153,0.9822 0.201,1.4835c-0.228,0.34515 -0.4875,0.61365 -0.747,0.92925c-0.3795,0.4608 -0.5385,0.9558 -0.6345,1.53405l-0.2595,0.22065l-0.1215,-0.0381c0.1335,-0.2565 0.1965,-0.49785 0.2655,-0.7779c-0.2325,-0.42105 -0.4695,-0.44025 -0.9015,-0.6306l0.1545,-0.46695l0.951,0.02085c0.21,-0.24285 0.138,-0.33315 0.132,-0.64275c0.4935,-0.5244 0.87,-0.87945 0.96,-1.632z" id="Path 1" fill="#bc9077"/><path d="M841.22779,436.33127c-0.051,-0.2955 -0.078,-0.4185 -0.288,-0.64635c-0.216,-0.23505 -0.4005,-0.44955 -0.5955,-0.7029c0.063,-0.31155 0.1815,-0.6993 0.1785,-1.0134c-0.0045,-0.39855 -0.52725,-0.6027 -0.81765,-0.8001l-0.0117,-0.18765c0.83385,-0.05055 2.12535,-0.25185 2.86335,0.1893c0.012,0.9009 -1.155,1.84665 -1.2885,2.8641c-0.006,0.042 -0.009,0.0825 -0.0135,0.1245c0.0735,0.0285 0.144,0.075 0.222,0.087c0.7035,0.105 1.332,0.168 2.0505,0.3345l0.3555,-0.3465c0.345,-0.006 0.4185,0.105 0.7035,0.282l0.1965,-0.09c-0.0885,-0.525 -1.026,-1.6263 -1.4685,-1.9314c-0.198,-0.1359 -0.6885,0.02115 -0.9285,0.0588c0.0795,-0.09135 0.21,-0.25065 0.309,-0.31425c0.843,-0.5364 1.4235,1.16295 2.1825,1.4481c0.567,-0.6129 0.231,-1.69245 0.912,-2.24445c0.363,-0.0414 0.3915,-0.03345 0.7155,0.1389c0.5145,0.7998 0.6825,1.236 0.768,2.1759c0.0495,0.5304 0.0525,0.8859 0.384,1.3059l0.057,0.135c0.051,0.0045 0.102,0.009 0.153,0.0135c0.1755,0.0105 0.336,0.006 0.51,-0.006c-0.0645,0.321 -0.1545,0.4035 -0.3585,0.651l-0.2685,0.4755c-0.582,0.552 -1.3695,1.482 -2.2245,1.479l-0.285,-0.174l-0.075,0.5565c-0.9075,0.0255 -1.833,-0.081 -2.739,-0.1455c-0.417,-0.579 -0.8295,-1.14 -1.1685,-1.77c-0.1305,-0.1905 -0.24,-0.429 -0.2865,-0.657c-0.2265,-1.119 -1.47255,-2.2653 -2.2191,-3.1257l0.09285,-0.123c0.7434,0.6576 1.53675,1.3224 2.16525,2.0952c0.039,0.048 0.078,0.099 0.117,0.147z" id="Path 1" fill="#f2bcae"/><path d="M841.25779,438.27827c0.78,-0.324 1.431,-0.5925 2.2515,-0.219c0.1905,0.0855 0.195,0.0975 0.348,0.198c0.303,0.4305 0.627,0.7005 1.035,1.032c0.2385,0.1935 0.144,0.105 0.348,0.348l-0.075,0.5565c-0.9075,0.0255 -1.833,-0.081 -2.739,-0.1455c-0.417,-0.579 -0.8295,-1.14 -1.1685,-1.77z" id="Path 1" fill="#c07d6c"/><path d="M847.71379,437.19827c0.051,0.0045 0.102,0.009 0.153,0.0135c0.1755,0.0105 0.336,0.006 0.51,-0.006c-0.0645,0.321 -0.1545,0.4035 -0.3585,0.651l-0.2685,0.4755c-0.582,0.552 -1.3695,1.482 -2.2245,1.479l-0.285,-0.174c-0.204,-0.243 -0.1095,-0.1545 -0.348,-0.348c-0.408,-0.3315 -0.732,-0.6015 -1.035,-1.032c0.912,-0.6135 1.7985,0.0465 2.817,-0.279c0.333,-0.3 0.63,-0.5835 1.0395,-0.78z" id="Path 1" fill="#d69f8e"/><path d="M847.65679,437.06327c0.168,-0.1905 0.5115,-0.537 0.5385,-0.804c0.0735,-0.7428 -1.038,-2.41335 -0.8895,-3.4683c0.0585,-0.4104 0.2115,-0.67815 0.5655,-0.9051c1.758,-1.12935 2.2575,2.0019 3.642,2.25885c0.261,-0.2355 0.288,-0.2169 0.3135,-0.56235c-0.318,-0.09045 -0.213,-0.0705 -0.498,-0.1191c-0.06,-0.01005 -0.1185,-0.0189 -0.1785,-0.02835l0.0855,-0.195c0.174,-0.00195 0.354,-0.0105 0.525,0.02775c0.3585,0.07965 0.6765,0.22965 0.8745,0.54375l-1.1355,1.0359c0.492,0.01755 1.359,0.23955 1.6875,0.6156c0.387,0.44235 0.5115,0.88935 0.5835,1.45935c0.0285,0.228 0.1155,0.3885 0.183,0.603c0.102,0.3255 0.0435,0.525 -0.0195,0.8505l-0.129,0.1095c-0.3075,-1.26 -0.582,-2.499 -1.677,-3.3156c-0.375,-0.0618 -0.5715,-0.096 -0.909,0.15135c-0.072,0.05295 -0.123,0.1302 -0.1845,0.19515c0.462,0.5601 1.5135,0.9846 1.7715,1.5981c-0.0315,0.516 0.0075,1.0305 -0.324,1.455c-0.6735,0.1155 -1.3815,-0.369 -2.109,-0.4545c-0.837,-0.0765 -1.7265,-0.324 -2.412,0.27c-0.057,0.0495 -0.1095,0.1035 -0.165,0.1545l-0.0465,-0.207l0.2685,-0.4755c0.204,-0.2475 0.294,-0.33 0.3585,-0.651c-0.174,0.012 -0.3345,0.0165 -0.51,0.006c-0.051,-0.0045 -0.102,-0.009 -0.153,-0.0135z" id="Path 1" fill="#cf938c"/><path d="M835.16659,456.93677c1.2876,0.4275 2.21115,2.1975 4.28745,2.598c2.17125,0.42 4.36275,-0.8655 6.58725,-0.1425c0.7155,0.2325 1.8855,-0.9075 2.5875,-1.2075c0.3615,0.063 0.345,0.0495 0.558,0.348c-0.3585,0.444 -1.482,0.6645 -2.0325,0.8505c-0.0735,0.096 -0.3765,0.5475 -0.4815,0.576c-0.639,0.174 -1.5885,-0.3735 -2.214,0.0675l0.072,0.174c1.689,0.0105 4.059,1.0575 5.6865,1.6095c1.23,-0.858 2.9445,-1.4445 3.7095,-2.817c0.0435,-0.078 0.0825,-0.159 0.123,-0.237l0.165,0.009l-0.042,0.288c-0.81,1.1445 -1.8945,1.869 -3.0525,2.6265c-0.1845,0.3285 -0.2295,0.5205 -0.216,0.897l0.045,1.428c-0.057,0.051 -0.1365,0.0675 -0.207,0.0945c-0.0045,-0.5745 -0.0165,-1.1445 -0.051,-1.7175c-0.2145,0.441 -0.384,0.9375 -0.792,1.233c-0.66,0.003 -0.7815,-0.528 -1.287,-0.696c-1.221,-0.405 -3.5745,-0.288 -5.001,-0.564c-0.873,-0.1695 -2.5485,-0.543 -3.0615,-1.296l0.1905,-0.1275c0.768,0.216 1.257,0.798 2.0745,0.978c1.569,0.3435 5.529,-0.1365 6.5805,1.0215c0.051,0.057 0.0975,0.1155 0.147,0.1725c0.3105,-0.2715 0.42,-0.3435 0.558,-0.726c-0.363,-0.4275 -1.161,-0.7485 -1.713,-0.795c-1.437,-0.12 -2.772,-0.7035 -4.158,-0.8355c-0.693,-0.066 -1.3875,0.081 -2.0775,0.0825c-2.35335,0.0045 -5.41335,-2.2815 -6.9852,-3.8925z" id="Path 1" fill="#bc9077"/><path d="M852.80629,437.11427c0.1005,0.7635 0.018,1.224 -0.2565,1.9395c0.252,0.66 0.8775,1.8405 0.7845,2.5335l-0.177,0.0585c-0.45,-0.5415 -0.6405,-1.3605 -0.8085,-2.0355l-0.2445,-0.075l-0.0705,0.12l0.312,0.4575c-0.183,0.21 -0.1245,0.225 -0.423,0.231c-0.0735,0.0015 -0.147,-0.0225 -0.2205,-0.0315c-1.9785,-0.2385 -3.594,2.352 -5.46,0.8475c-0.0975,0.0795 -0.0405,0.024 -0.1485,0.21l-0.0945,0.1665l-0.126,-0.0045c-0.1455,0.315 -0.0375,0.2055 -0.294,0.3555c0.1065,-0.2685 0.21,-0.6675 0.162,-0.9615c-0.0615,-0.369 -0.294,-0.522 -0.576,-0.732l0.075,-0.5565l0.285,0.174c0.855,0.003 1.6425,-0.927 2.2245,-1.479l0.0465,0.207c0.0555,-0.051 0.108,-0.105 0.165,-0.1545c0.6855,-0.594 1.575,-0.3465 2.412,-0.27c0.7275,0.0855 1.4355,0.57 2.109,0.4545c0.3315,-0.4245 0.2925,-0.939 0.324,-1.455z" id="Path 1" fill="#c07d6c"/><path d="M847.74979,438.33227l0.0465,0.207c-0.7275,0.675 -1.197,1.707 -1.554,2.6205c-0.0975,0.0795 -0.0405,0.024 -0.1485,0.21l-0.0945,0.1665l-0.126,-0.0045c-0.1455,0.315 -0.0375,0.2055 -0.294,0.3555c0.1065,-0.2685 0.21,-0.6675 0.162,-0.9615c-0.0615,-0.369 -0.294,-0.522 -0.576,-0.732l0.075,-0.5565l0.285,0.174c0.855,0.003 1.6425,-0.927 2.2245,-1.479z" id="Path 1" fill="#cf938c"/><path d="M850.93429,438.35027c0.171,0.0135 0.3555,0.0675 0.5235,0.1035c0.2205,0.336 0.2835,0.4875 0.279,0.8895c-0.4635,0.879 -2.0715,1.1085 -2.958,1.5225l-0.177,0.084c-0.2235,-0.0615 -0.444,-0.162 -0.6615,-0.2445c0.081,-0.7215 2.2575,-1.6425 2.8785,-2.2395c0.039,-0.0375 0.0765,-0.078 0.1155,-0.1155z" id="Path 1" fill="#894f44"/><path d="M845.93029,405.12257c0.363,0.3438 0.426,0.3909 0.5475,0.8709l-0.303,0.19665l-0.1635,-0.11775z" id="Path 1" fill="#f2bcae"/><path d="M821.53699,401.11412c0.19455,-0.03795 0.3801,-0.11265 0.55935,-0.19785c1.05855,-0.50325 1.78215,-0.3408 2.8848,-0.1023c0.38415,0.084 0.7767,0.1893 1.16445,0.25065c0.86625,0.07725 1.3701,0.07785 2.04555,0.669l0.9645,-0.22125l0.2328,0.20565c-0.17775,0.6828 -1.07775,1.2234 -1.45425,1.90035c-1.0857,0.67965 -1.29015,1.2375 -1.719,2.38845l-0.4914,0.8169c-0.57855,0.60135 -1.68135,1.39215 -2.0214,2.1162c0.2046,0.1584 0.429,0.3048 0.5937,0.5049c-0.56085,0.47175 -0.9741,0.71445 -1.0629,1.48065l-0.5037,0.57c-0.25245,0.7653 -0.70515,1.3623 -1.16625,2.0109l0.49245,0.16785c0.28545,-0.20445 0.63345,-0.52455 0.9858,-0.5766c0.1998,-0.02955 0.3363,0.1488 0.48705,0.261l-0.5238,0.8379c-0.03615,0.04485 -0.07185,0.08985 -0.1086,0.13425c-0.17775,0.21525 -0.11115,0.13695 -0.34065,0.36465c-0.0423,0.34905 -0.01875,0.2997 0.14355,0.5775c0.3528,0.06435 0.15645,0.04665 0.4554,0.0444c0.23865,-0.00165 0.1332,-0.0222 0.3546,0.0879c-0.01815,0.0561 -0.03555,0.11265 -0.0546,0.16845c-0.31695,0.92925 -0.8613,1.6458 -1.5099,2.37495c-0.03165,0.1824 0.71895,4.76115 0.76905,4.86345c-0.2637,1.06125 -0.28515,1.4562 0.1971,2.4588c0.11295,0.2346 0.16725,0.4287 0.21645,0.6819l0.0018,1.21605c-0.24615,2.58345 1.52265,6.8337 0.7647,8.95545c-0.43395,0.342 -0.8001,0.3615 -1.34955,0.3885l0.3567,0.3615c0.3957,-0.072 0.64905,-0.111 1.05165,-0.03c0.27495,0.258 0.41685,0.345 0.46185,0.7455c0.03615,0.321 -0.00975,0.81 -0.14775,1.1025c0.2412,0.4065 0.23535,0.6015 0.22035,1.056c-0.03525,0.9375 0.01515,2.205 -0.3639,3.081l-0.2151,0.5805c-0.17625,2.7285 -0.6921,5.469 -0.6564,8.2035c-0.1335,0.666 -0.2934,1.3515 -0.3273,2.031c-0.0648,1.296 0.37935,3.5445 -0.8181,4.422c-0.1164,0.0855 -0.1503,0.0975 -0.2655,0.1575l-0.13005,0.027c-0.6996,0.525 -0.97545,1.233 -1.4994,1.9005l-0.65115,-0.0825l0.17265,-0.9585c-0.00735,-1.1685 1.00005,-2.7285 1.0404,-4.158c0.0387,-1.3665 -0.5379,-2.58 -0.7209,-3.9105c-0.26385,-1.9155 -0.22755,-3.9585 -0.36855,-5.898c-0.70545,-3.0675 -0.4599,-6.2475 -1.12245,-9.3135c-0.56265,-2.60235 -2.0121,-4.9245 -2.54655,-7.5042c-1.0926,-2.6946 -1.5339,-7.35585 -1.16955,-10.2114c0.39945,-6.3087 2.19075,-12.05895 6.0378,-17.10705z" id="Path 1" fill="#e3bda9"/><path d="M821.53699,401.11412c0.19455,-0.03795 0.3801,-0.11265 0.55935,-0.19785c1.05855,-0.50325 1.78215,-0.3408 2.8848,-0.1023c0.38415,0.084 0.7767,0.1893 1.16445,0.25065c0.86625,0.07725 1.3701,0.07785 2.04555,0.669c-0.88305,0.4275 -1.80645,0.37275 -2.7363,0.6093l0.11295,0.44055l0.37275,0.1305c-0.3549,0.16215 -0.7173,0.31425 -1.05435,0.5112c-2.2839,0.6711 -4.90635,3.0891 -6.04425,5.14665c-1.53165,2.7699 -1.9365,12.49305 -3.0093,13.60005l-0.2475,-0.1248c-0.141,-0.94935 -0.2535,-1.90275 -0.33735,-2.85885l0.0402,0.47985c-0.1269,-0.5262 -0.2268,-1.0551 -0.44295,-1.5534c0.39945,-6.3087 2.19075,-12.05895 6.0378,-17.10705z" id="Path 1" fill="#c5a890"/><path d="M824.98114,400.81397c0.38415,0.084 0.7767,0.1893 1.16445,0.25065c0.86625,0.07725 1.3701,0.07785 2.04555,0.669c-0.88305,0.4275 -1.80645,0.37275 -2.7363,0.6093l0.4842,-0.3435l-0.11145,-0.16875c-0.50115,-0.0528 -1.0524,-0.0393 -1.5399,-0.1428c-0.35775,-0.07605 -0.4965,-0.22395 -0.68895,-0.51465l0.17925,-0.2259z" id="Path 1" fill="#bc9077"/><path d="M822.64819,444.21077l0.3672,0.1065c0.2529,-0.474 0.4179,-0.6495 0.8925,-0.9075c-0.17625,2.7285 -0.6921,5.469 -0.6564,8.2035c-0.1335,0.666 -0.2934,1.3515 -0.3273,2.031c-0.0648,1.296 0.37935,3.5445 -0.8181,4.422c-0.1164,0.0855 -0.1503,0.0975 -0.2655,0.1575c-0.0726,-0.843 0.84075,-1.5225 0.822,-2.4495c-0.2556,-0.1575 -0.3585,-0.2475 -0.4956,-0.516c0.09705,-2.2035 -1.71375,-3.8535 -1.518,-6.033c0.0459,-0.5115 0.0426,-1.026 0.20715,-1.518c0.6864,-0.354 0.40155,-2.07 0.89385,-2.7615l0.09,0.189c0.41565,-0.423 0.6042,-0.2835 0.8082,-0.924z" id="Path 1" fill="url(#color-10)"/><path d="M821.56324,413.50637l0.49245,0.16785c-2.2578,2.9478 0.0213,9.912 -0.9444,11.53905c-0.4008,-0.09315 -0.52215,-0.12705 -0.75015,-0.4755c-0.74145,-1.1334 -1.10985,-2.343 -2.3886,-3.0093c0.05895,0.0111 0.11775,0.0237 0.17715,0.0333c0.4308,0.0702 0.639,0.1017 0.9879,-0.1509c0.1398,-0.5625 -0.11505,-1.15635 -0.27105,-1.69845c-0.0102,-0.65925 -0.19965,-1.35855 -0.54525,-1.91985c-0.10155,-1.1004 0.2181,-1.7787 -0.0495,-2.96955c-0.1575,0.32325 -0.2511,0.72165 -0.5778,0.8817l-0.0741,-0.32895c0.0885,-0.23295 0.15615,-0.45195 0.32685,-0.639c0.22605,-0.24765 0.26865,-0.26535 0.58395,-0.28245c0.53895,0.84735 -0.0924,2.46975 0.41745,3.48645c0.75885,-0.55845 0.74325,-2.13495 1.7154,-3.11085c0.36675,-0.4584 0.6297,-0.80985 0.80745,-1.3731z" id="Path 1" fill="#ddc199"/><path d="M829.15564,401.51237l0.2328,0.20565c-0.17775,0.6828 -1.07775,1.2234 -1.45425,1.90035c-1.0857,0.67965 -1.29015,1.2375 -1.719,2.38845l-0.4914,0.8169c-0.57855,0.60135 -1.68135,1.39215 -2.0214,2.1162c-0.30795,0.0453 -0.447,-0.0087 -0.7284,-0.13425l-0.18795,0.0993c-0.201,-0.44115 -0.41595,-1.1622 -0.83955,-1.41915c-0.25575,0.11565 -0.3201,0.23145 -0.44625,0.4686c-0.18765,0.35325 -0.3936,0.68205 -0.61275,1.01625c0.21855,-0.63735 0.42675,-1.70805 0.774,-2.265c0.1539,-0.2469 3.0804,-2.1384 3.4131,-2.26965c0.1509,-0.4569 0.02445,-0.60645 -0.1884,-1.01085c0.33705,-0.19695 0.69945,-0.34905 1.05435,-0.5112l-0.37275,-0.1305l-0.11295,-0.44055c0.92985,-0.23655 1.85325,-0.1818 2.7363,-0.6093z" id="Path 1" fill="#9c7a6c"/><path d="M820.88749,408.97067c0.21855,-0.63735 0.42675,-1.70805 0.774,-2.265c0.1539,-0.2469 3.0804,-2.1384 3.4131,-2.26965l-0.03105,0.19335c-0.4731,0.435 -1.3941,1.0227 -1.63455,1.6062c0.46035,0.27825 0.93045,-0.15585 1.28085,0.19185c-0.2991,0.8298 -1.2045,1.6296 -1.71585,2.37825l-0.18795,0.0993c-0.201,-0.44115 -0.41595,-1.1622 -0.83955,-1.41915c-0.25575,0.11565 -0.3201,0.23145 -0.44625,0.4686c-0.18765,0.35325 -0.3936,0.68205 -0.61275,1.01625z" id="Path 1" fill="#e3bda9"/><path d="M825.94054,402.91397l0.76305,-0.0336l0.16035,0.15465c-0.34995,0.64305 -1.22685,1.1637 -1.8204,1.59435l0.03105,-0.19335c0.1509,-0.4569 0.02445,-0.60645 -0.1884,-1.01085c0.33705,-0.19695 0.69945,-0.34905 1.05435,-0.5112z" id="Path 1" fill="#c5a890"/><path d="M821.26894,427.85357l0.48945,0.05685c0.1707,0.45855 0.0894,0.7095 -0.1161,1.14915c-0.51615,1.1034 -1.4565,2.4225 -1.03965,3.68985c0.22185,0.6744 0.9204,1.1547 1.5372,1.4358c0.213,0.09705 0.4377,0.15585 0.6621,0.219c0.16635,0.32625 0.2796,0.3576 0.1683,0.7227c-0.73185,0.2478 -2.4138,-1.0101 -3.25965,-1.2792c-0.06345,-0.0201 -0.1275,-0.0387 -0.1914,-0.05805c-0.47565,-0.9273 -0.96795,-1.84185 -1.31955,-2.8251c-0.5001,-0.7041 -0.7209,-1.7208 -0.81915,-2.5749c0.3228,-0.0651 0.4767,-0.1752 0.7587,-0.34185c0.141,0.40785 0.1473,0.4845 0.48465,0.74325c0.5478,0.0564 1.04085,-0.0093 1.5852,-0.02475c0.4176,-0.1899 0.7389,-0.59205 1.0599,-0.91275z" id="Path 1" fill="url(#color-11)"/><path d="M818.13919,428.04782c0.141,0.40785 0.1473,0.4845 0.48465,0.74325c0.5478,0.0564 1.04085,-0.0093 1.5852,-0.02475c-0.8604,0.5703 -1.29195,1.48305 -2.0094,2.19825c-0.5001,-0.7041 -0.7209,-1.7208 -0.81915,-2.5749c0.3228,-0.0651 0.4767,-0.1752 0.7587,-0.34185z" id="Path 1" fill="#e3bda9"/><path d="M820.88749,408.97067c0.21915,-0.3342 0.4251,-0.663 0.61275,-1.01625c0.12615,-0.23715 0.1905,-0.35295 0.44625,-0.4686c0.4236,0.25695 0.63855,0.978 0.83955,1.41915l0.18795,-0.0993c0.2814,0.12555 0.42045,0.17955 0.7284,0.13425c0.2046,0.1584 0.429,0.3048 0.5937,0.5049c-0.56085,0.47175 -0.9741,0.71445 -1.0629,1.48065l-0.5037,0.57c-0.25245,0.7653 -0.70515,1.3623 -1.16625,2.0109l-0.09225,0.15045l-0.81825,0.16245c-0.345,0.0702 -0.5652,0.2832 -0.8157,0.5148c-0.16395,-0.189 -0.26955,-0.35745 -0.39435,-0.5721c-0.1101,-1.8897 0.63705,-3.17475 1.4448,-4.7913z" id="Path 1" fill="#e7d5c9"/><path d="M822.78604,408.90497l0.18795,-0.0993c0.2814,0.12555 0.42045,0.17955 0.7284,0.13425c0.2046,0.1584 0.429,0.3048 0.5937,0.5049c-0.56085,0.47175 -0.9741,0.71445 -1.0629,1.48065l-0.11355,-0.61695c-0.33585,-0.29715 -0.5358,-0.23865 -0.9744,-0.2679c0.072,-0.43725 0.3885,-0.78345 0.6408,-1.13565z" id="Path 1" fill="#c5a890"/><path d="M822.90079,436.87427c0.3957,-0.072 0.64905,-0.111 1.05165,-0.03c0.27495,0.258 0.41685,0.345 0.46185,0.7455c0.03615,0.321 -0.00975,0.81 -0.14775,1.1025c0.2412,0.4065 0.23535,0.6015 0.22035,1.056c-0.372,0.7965 -0.64005,1.266 -1.5111,1.557c-0.30015,0.1005 -0.6099,0.177 -0.9168,0.2535c-0.3795,-0.417 -0.61755,-0.8385 -0.8796,-1.335l-0.37395,-0.333c0.14745,-0.2265 0.3585,-0.426 0.55335,-0.609c0.0576,-0.0555 0.11655,-0.108 0.1749,-0.162c0.09195,-0.345 0.0408,-0.5115 -0.069,-0.846c0.2937,0 0.4179,-0.081 0.6768,-0.2085c0.32055,-0.384 0.5385,-0.741 0.7593,-1.191z" id="Path 1" fill="#e2ac94"/><path d="M822.90079,436.87427c0.3957,-0.072 0.64905,-0.111 1.05165,-0.03c0.27495,0.258 0.41685,0.345 0.46185,0.7455c0.03615,0.321 -0.00975,0.81 -0.14775,1.1025l-0.5226,0.717c-0.49545,-0.054 -0.89025,-0.0825 -1.3263,-0.336c-0.27435,-0.366 -0.2631,-0.5685 -0.27615,-1.008c0.32055,-0.384 0.5385,-0.741 0.7593,-1.191z" id="Path 1" fill="#e3bda9"/><path d="M824.26654,438.69227c0.2412,0.4065 0.23535,0.6015 0.22035,1.056c-0.372,0.7965 -0.64005,1.266 -1.5111,1.557c-0.30015,0.1005 -0.6099,0.177 -0.9168,0.2535c-0.3795,-0.417 -0.61755,-0.8385 -0.8796,-1.335l0.384,-0.1935c0.20985,0.105 0.35955,0.225 0.53025,0.3825c0.27315,0.252 0.29415,0.2085 0.64305,0.2595c0.4758,-0.2295 0.7395,-0.822 1.00725,-1.263z" id="Path 1" fill="#a86951"/><path d="M816.01459,428.32607c1.0602,0.68085 2.03955,6.18435 2.9661,7.5252c0.14625,-0.37605 0.11145,-0.7206 0.0951,-1.1148l0.1986,0.18255l0.02295,0.14775c0.05985,0.36555 0.1338,0.69 0.26055,1.038c0.3111,0.8535 0.6375,2.0085 0.58725,2.919l-0.23205,0.036c-0.23475,-0.333 -0.3264,-0.6525 -0.43815,-1.038l-0.195,-0.0045c-0.43185,0.852 0.56775,5.526 0.41295,7.0275c-0.70545,-3.0675 -0.4692,-6.1485 -1.13175,-9.2145c-0.56265,-2.60235 -2.0121,-4.9245 -2.54655,-7.5042z" id="Path 1" fill="#e7d5c9"/><path d="M818.14684,426.26822c0.0075,-0.47775 -0.0426,-0.918 0.2472,-1.3245l0.2412,-0.0168c1.06365,0.93465 0.7401,1.81035 2.25855,2.6259c0.22725,0.1221 0.14925,0.08085 0.37515,0.30075c-0.321,0.3207 -0.6423,0.72285 -1.0599,0.91275c-0.54435,0.01545 -1.0374,0.08115 -1.5852,0.02475c-0.33735,-0.25875 -0.34365,-0.3354 -0.48465,-0.74325c0.0582,-0.59175 0.02355,-1.1862 0.00765,-1.7796z" id="Path 1" fill="#f2bcae"/><path d="M817.19734,427.12757c-0.1092,-1.28025 -0.9918,-3.15015 -0.3123,-4.2816c0.3126,-0.1104 0.3372,-0.11655 0.65535,-0.02715c0.6747,0.74055 0.4947,2.472 0.60645,3.4494c0.0159,0.5934 0.05055,1.18785 -0.00765,1.7796c-0.282,0.16665 -0.4359,0.27675 -0.7587,0.34185z" id="Path 1" fill="#dd9c79"/><path d="M822.05899,441.55877c0.3069,-0.0765 0.61665,-0.153 0.9168,-0.2535c0.87105,-0.291 1.1391,-0.7605 1.5111,-1.557c-0.03525,0.9375 0.01515,2.205 -0.3639,3.081l-0.2151,0.5805c-0.4746,0.258 -0.6396,0.4335 -0.8925,0.9075l-0.3672,-0.1065c-0.204,0.6405 -0.39255,0.501 -0.8082,0.924c0.2067,-0.69 0.43785,-1.395 0.5907,-2.0985c0.10665,-0.4905 0.1152,-0.8595 -0.16545,-1.269z" id="Path 1" fill="#dd9c79"/><path d="M822.64819,444.21077c-0.0321,-0.7065 -0.09075,-1.284 0.2838,-1.9095l0.31695,-0.075c0.3519,0.1695 0.6228,0.2895 0.87405,0.603l-0.2151,0.5805c-0.4746,0.258 -0.6396,0.4335 -0.8925,0.9075z" id="Path 1" fill="#bc9077"/><path d="M819.07579,434.73647c0.0102,-0.55185 0.042,-1.07145 -0.1974,-1.5828c-0.9447,-2.01735 -1.6971,-3.67275 -1.9254,-5.92365l0.24435,-0.10245l0.18315,1.2621c0.09825,0.8541 0.31905,1.8708 0.81915,2.5749c0.3516,0.98325 0.8439,1.8978 1.31955,2.8251c0.0639,0.01935 0.12795,0.03795 0.1914,0.05805c0.84585,0.2691 2.5278,1.527 3.25965,1.2792c0.1113,-0.3651 -0.00195,-0.39645 -0.1683,-0.7227l0.08985,-0.0984c0.24795,0.34665 0.34215,0.59745 0.45495,0.99945c-0.41565,0.23595 -1.08435,0.05355 -1.55445,-0.0213c-0.1599,0.1914 -0.3144,0.3873 -0.46305,0.5883c-0.5076,0 -0.85875,-0.32355 -1.2,-0.66795c-0.0666,-0.06735 -0.13185,-0.1362 -0.1977,-0.20415c-0.21945,-0.0333 -0.435,-0.0741 -0.65715,-0.08115z" id="Path 1" fill="#f2bcae"/><path d="M822.26524,441.76727c0.28065,0.4095 0.2721,0.7785 0.16545,1.269c-0.15285,0.7035 -0.384,1.4085 -0.5907,2.0985l-0.09,-0.189c-0.4923,0.6915 -0.20745,2.4075 -0.89385,2.7615c-0.09285,-1.707 0.27825,-3.423 0.17865,-5.13c0.3201,-0.072 0.62715,-0.1335 0.92205,-0.285c0.23895,-0.1215 0.22335,-0.285 0.3084,-0.525z" id="Path 1" fill="#ddc199"/><path d="M817.19899,420.46097c0.2388,-0.4662 0.24195,-0.56145 0.7272,-0.80595c0.36735,0.0447 0.60555,0.08355 0.94035,0.2574c0.156,0.5421 0.41085,1.13595 0.27105,1.69845c-0.3489,0.2526 -0.5571,0.2211 -0.9879,0.1509c-0.0594,-0.0096 -0.1182,-0.0222 -0.17715,-0.0333c-0.30675,-0.08655 -0.63195,-0.16035 -0.92745,-0.29985c0.0279,-0.3324 0.08265,-0.64185 0.1539,-0.96765z" id="Path 1" fill="#bc9077"/><path d="M817.19899,420.46097c0.03195,-0.6819 0.3681,-1.9542 0.7848,-2.4933l0.3375,0.0249c0.3456,0.5613 0.53505,1.2606 0.54525,1.91985c-0.3348,-0.17385 -0.573,-0.2127 -0.94035,-0.2574c-0.48525,0.2445 -0.4884,0.33975 -0.7272,0.80595z" id="Path 1" fill="#c5a890"/><path d="M821.46469,438.27377c0.02235,-0.3405 0.0279,-0.9345 0.21555,-1.233c0.25125,-0.399 0.4362,-0.4065 0.86385,-0.528l0.3567,0.3615c-0.2208,0.45 -0.43875,0.807 -0.7593,1.191c-0.2589,0.1275 -0.3831,0.2085 -0.6768,0.2085z" id="Path 1" fill="#c07d6c"/><path d="M817.07329,463.98227c-0.06945,-0.18 -0.11355,-0.375 -0.1659,-0.561c0.42825,-1.7595 1.56795,-3.0705 2.82525,-4.311l-0.17265,0.9585l0.65115,0.0825c-0.97155,2.115 -2.6034,5.1105 -2.34465,7.4715c0.08655,0.7905 0.4476,1.65 0.7248,2.3925c1.6986,4.5465 4.2492,8.556 6.41985,12.8655c1.1343,2.2515 1.95975,4.7685 3.2451,6.9255c-10.1928,-2.259 -18.0264,-6.735 -25.90485,-13.5135c5.4741,-1.1925 9.0516,-4.1865 12.16005,-8.787c0.7647,-1.1325 1.5012,-2.6625 2.56185,-3.5235z" id="Path 1" fill="#212735"/><path d="M817.07329,463.98227c-0.06945,-0.18 -0.11355,-0.375 -0.1659,-0.561c0.42825,-1.7595 1.56795,-3.0705 2.82525,-4.311l-0.17265,0.9585c-0.6183,1.575 -1.01055,2.919 -2.4867,3.9135z" id="Path 1" fill="#d8d0d4"/><path d="M835.44589,486.94577l3.43515,-2.0475l0.0192,0.654c1.07265,0.834 1.72305,2.2215 2.59455,3.261c0.642,0.6105 1.3515,1.1535 1.983,1.7655c-0.2475,0.0945 -0.5175,0.228 -0.7725,0.288c-1.209,0.117 -2.5185,0.312 -3.6984,-0.0525c-1.0776,0.108 -2.32725,0.114 -3.40935,0.03c-0.7992,-0.165 -1.21905,-0.558 -1.92555,-0.861c-0.8673,-0.372 -2.24385,0.006 -3.18615,0.0165l-0.0684,-0.1335l0.51495,-0.2595c1.56795,-0.7755 2.91225,-1.9425 4.5135,-2.661z" id="Path 1" fill="#212735"/><path d="M835.44589,486.94577c0.7011,0.837 1.3953,1.68 2.08245,2.529c0.55185,0.4185 1.01955,0.816 1.47855,1.3395c-1.0776,0.108 -2.32725,0.114 -3.40935,0.03c-0.7992,-0.165 -1.21905,-0.558 -1.92555,-0.861c-0.8673,-0.372 -2.24385,0.006 -3.18615,0.0165l-0.0684,-0.1335l0.51495,-0.2595c1.56795,-0.7755 2.91225,-1.9425 4.5135,-2.661z" id="Path 1" fill="#82706b"/><path d="M836.14204,489.46577c0.4707,0.03 0.9162,0.0555 1.3863,0.009c0.55185,0.4185 1.01955,0.816 1.47855,1.3395c-1.0776,0.108 -2.32725,0.114 -3.40935,0.03l0.31695,-0.087l0.0267,-0.222c-0.29985,-0.225 -0.62145,-0.411 -0.76905,-0.7695c0.31785,-0.273 0.56025,-0.2445 0.9699,-0.3z" id="Path 1" fill="#d8d0d4"/><path d="M830.93239,489.60677c0.49155,0.183 3.87555,-0.348 5.20965,-0.141c-0.40965,0.0555 -0.65205,0.027 -0.9699,0.3c0.1476,0.3585 0.4692,0.5445 0.76905,0.7695l-0.0267,0.222l-0.31695,0.087c-0.7992,-0.165 -1.21905,-0.558 -1.92555,-0.861c-0.8673,-0.372 -2.24385,0.006 -3.18615,0.0165l-0.0684,-0.1335z" id="Path 1" fill="#bcb9b7"/><path d="M840.43879,488.67077c-0.039,-0.036 -0.0795,-0.0705 -0.1185,-0.1065c-0.6321,-0.6165 -1.70265,-1.8375 -1.71015,-2.7465l0.2901,-0.2655c1.07265,0.834 1.72305,2.2215 2.59455,3.261c0.642,0.6105 1.3515,1.1535 1.983,1.7655c-0.2475,0.0945 -0.5175,0.228 -0.7725,0.288c-0.852,-0.6705 -1.578,-1.3605 -2.2665,-2.196z" id="Path 1" fill="#bcb9b7"/></g></g></g></g></g></g></g></svg>