<svg version="1.1" xmlns="http://www.w3.org/2000/svg" xmlns:xlink="http://www.w3.org/1999/xlink" width="900" height="456" viewBox="390,203,900,456"><g id="document" fill-opacity="0" fill="#000000" fill-rule="nonzero" stroke="#000000" stroke-width="0" stroke-linecap="butt" stroke-linejoin="miter" stroke-miterlimit="10" stroke-dasharray="" stroke-dashoffset="0" font-family="none" font-weight="none" font-size="none" text-anchor="none" style="mix-blend-mode: normal"><rect x="303.33333" y="232.22222" transform="scale(1.28571,0.9)" width="700" height="500" id="Shape 1 1" vector-effect="non-scaling-stroke"/></g><g fill="none" fill-rule="nonzero" stroke-opacity="0" stroke="#000000" stroke-width="1" stroke-linecap="none" stroke-linejoin="none" stroke-miterlimit="10" stroke-dasharray="" stroke-dashoffset="0" font-family="none" font-weight="none" font-size="none" text-anchor="none" style="mix-blend-mode: normal"><g id="stage"><g id="layer1 1"><path d="M821,375v-5h39v5z" id="Path 1" fill="none" stroke-linecap="round" stroke-linejoin="round"/><path d="M826,466v-263h229v263z" id="Path 1" fill="none" stroke-linecap="round" stroke-linejoin="round"/><path d="M391,659v-451h898v451z" id="Path 1" fill="none" stroke-linecap="round" stroke-linejoin="round"/><g id="Group 1" fill="#000000" stroke-linecap="butt" stroke-linejoin="miter"><path d="M933.40073,220.99853c-1.8,1.6 -5.5,4.1 -8.3,5.6c-15.8,8.7 -30,20.2 -81.5,65.9c-16.8,14.9 -35.2,31.2 -41,36.1c-14.8,12.7 -45.8,42.3 -54.1,51.8c-8.4,9.5 -9.8,12 -7.8,14.3c1.2,1.5 3.9,-1 25.9,-23.3c16.4,-16.7 35.2,-34.4 57.2,-53.6c17.9,-15.8 39.1,-34.6 47,-41.8c15.6,-14.4 28.7,-25.2 41.8,-34.7c4.7,-3.4 11.2,-8.2 14.4,-10.7c3.7,-2.9 6.3,-4.2 6.8,-3.7c1.5,1.5 -3.7,11.2 -15.7,29.2c-19.6,29.3 -32.6,46.5 -80,105.6c-25.6,31.9 -38,48.3 -41.4,55.1c-2.2,4.4 -5.5,7.3 -8.3,7.3c-2.8,0 -3,-1.7 -0.3,-5.6c3,-4.4 3.2,-7.5 0.5,-9.9c-4.3,-3.9 -21,0.2 -49.8,12.1c-8.5,3.6 -16.1,6.3 -16.9,6c-0.7,-0.3 -1.3,-1.6 -1.3,-2.9c0,-4.3 -3.4,-6.2 -10.9,-6.2c-5.4,0 -7.2,0.4 -9.5,2.3c-3.3,2.6 -6.8,2.8 -9,0.7c-0.8,-0.8 -2.5,-1.5 -3.8,-1.5c-5.1,0 -26.8,12.1 -48.1,26.6c-5.9,4.1 -11.2,7.4 -11.7,7.4c-3.1,0 0.2,-3.9 27.8,-32.9c11.7,-12.3 22,-23.7 22.8,-25.3c1.9,-3.7 1,-6.6 -2.3,-7.4c-8.2,-2.1 -55.1,30.3 -90.1,62.3c-9.2,8.4 -13.2,11.4 -15.8,11.9c-2,0.4 -4,0.2 -4.5,-0.3c-1,-1 13.9,-21.3 25,-34.3c2.6,-3 11.5,-14.1 19.7,-24.5c8.2,-10.5 21.9,-27.6 30.3,-38c16.5,-20.5 20.7,-26.6 19.7,-29.1c-1,-2.7 -8.1,-1.1 -19.1,4.5c-8.1,4.1 -15.8,9.7 -41.1,29.8c-48.7,38.9 -59.1,48 -95,83.6l-19.2,18.9l-18.2,3c-10,1.6 -18.5,2.7 -18.7,2.4c-1.7,-1.6 6.4,-13.1 29.2,-41.6c11.1,-13.9 19.1,-22.1 49.6,-51.6c20,-19.3 43.4,-41.5 51.9,-49.4c27.6,-25.5 71,-67.2 74.2,-71.2c5.9,-7.5 0.6,-6.3 -11.2,2.6c-21.2,16 -67.5,56.2 -86.5,75.1c-13.6,13.5 -33.5,34.6 -47.1,49.8c-8.7,9.8 -16.9,16.9 -22.9,19.9c-7.1,3.6 -9.2,6.8 -4.5,6.8c3.5,0 3.2,2.1 -1.2,6.8c-9.7,10.4 -32.3,40.3 -37,49c-0.9,1.8 -3.1,4 -4.9,5.1c-3,1.8 -6.3,2.4 -27.9,5.1c-8.3,1 -11.9,2.7 -10.6,4.9c0.5,0.7 6.2,1.1 16.7,1.1c8.7,0 15.9,0.2 15.9,0.5c0,0.3 -2.2,4 -4.9,8.3c-13.5,21.6 -17.1,35.4 -9.9,38.1c6.2,2.3 11.6,-1.7 38.8,-28.6l22.5,-22.2l26.5,-2.5c37.1,-3.6 38,-3.6 38,-3c0,4.2 -26.8,37.7 -48.9,60.9c-42,44.2 -70.1,84.8 -68.9,99.4c0.3,3.3 0.6,3.6 3.6,3.9c2.9,0.3 4,-0.4 9.5,-6c11.1,-11.3 36,-45.5 69.4,-95.3c15.1,-22.4 22.3,-32.2 36.6,-49c6.2,-7.4 6.6,-8.4 4,-8.1c-2.8,0.2 -2.7,-3.1 0.2,-6c2.9,-2.9 4.9,-2.8 5.3,0.4c0.4,2.6 0.5,2.6 4.1,0.8c5,-2.7 20.7,-4.1 82.1,-7.6c147.1,-8.4 239,-15.1 317.5,-23c21.5,-2.2 53.9,-5.3 72,-7c18.2,-1.7 43.4,-4.2 56,-5.5c25.6,-2.7 52.2,-5.1 112.5,-10c10.7,-0.9 21.7,-2.1 24.3,-2.7c5.1,-1.1 6.9,-3.1 4.6,-5.3c-2,-2 -19.7,-5.3 -36.8,-7.1c-8,-0.8 -16.2,-1.7 -18.1,-2c-3,-0.5 -3.2,-0.7 -1.6,-1.6c1.2,-0.7 16.5,-1.4 39,-1.9c37.8,-0.9 68.3,-2.4 72.4,-3.5c1.4,-0.4 2.2,-1.4 2.2,-2.9c0,-3 -0.8,-3.2 -9.9,-2.4c-4.2,0.4 -20,1.2 -35.1,1.8c-26,1.1 -48.5,2.3 -105,5.6c-31.6,1.9 -47.5,1.9 -68.4,-0.1c-16.4,-1.5 -38.7,-1.5 -46.5,0.2c-3.2,0.6 -3.3,0.6 -2.1,-1.7c0.7,-1.3 3.1,-4.3 5.3,-6.6c3.5,-3.7 3.8,-4.3 2.3,-4.9c-2.4,-0.9 -9.4,2 -31.3,13.2c-25.2,12.8 -34.2,15.5 -55.3,17c-8.2,0.5 -9.8,0.4 -10.9,-1c-3.6,-4.3 7.3,-19.8 35.9,-50.9c0.4,-0.4 8.3,-2.1 17.6,-3.7c26.2,-4.4 33.4,-6.5 33.4,-9.6c0,-2.6 -2.7,-2.5 -17.6,0.6c-8.2,1.8 -17.3,3.4 -20.3,3.7l-5.5,0.6l2,-3.1c1,-1.6 5.5,-7.1 9.9,-12.1c16.8,-19.3 29.7,-38.6 28.2,-42.4c-2.5,-6.4 -21,5.9 -47.7,31.8c-24.9,24.1 -36.5,34.9 -40.6,37.7c-4.5,3.1 -9.4,4.6 -9.4,2.9c0,-1.1 12.6,-16 25.5,-30.1c9.5,-10.4 31.4,-37 41.4,-50.3c16.8,-22.5 32.2,-48.4 30.8,-52.1c-1.2,-3 -3.6,-2.9 -7.3,0.4c-2,1.7 -4.7,3.5 -6.1,4.1c-6.4,2.4 -29.7,21.2 -56.6,45.7c-16.4,14.9 -60.4,61.1 -92.3,96.8c-4,4.4 -9.6,9.7 -12.5,11.7c-9.7,6.6 -32.9,15.1 -32.9,11.9c0,-1.2 12.6,-17.7 27.4,-35.7c7.5,-9.1 20.3,-25.3 28.5,-35.8c8.2,-10.6 19.1,-24.2 24.2,-30.2c16.5,-19.7 43.9,-59.7 52.4,-76.5c4.7,-9.4 6.1,-14.4 4.7,-17.5c-1.5,-3.3 -3.4,-3.2 -7.4,0.4zM1002.10073,255.99853c-0.6,2 -19.2,28.6 -28.4,40.6c-5.8,7.6 -42.1,51.4 -51.4,62c-9.8,11.1 -21.8,23.4 -24.2,24.8c-1.1,0.6 -8.7,3.4 -17,6.3c-8.2,2.8 -18.1,6.3 -22,7.7c-3.8,1.4 -7.1,2.4 -7.3,2.2c-1.6,-1.5 75.6,-82.9 98.8,-104.4c21.1,-19.4 50.4,-43 51.8,-41.7c0.2,0.3 0.1,1.4 -0.3,2.5zM608.00073,303.19853c-7.4,8.3 -54.4,50.2 -55.3,49.3c-0.9,-1 28.7,-28.4 48.8,-45.2c7.8,-6.4 9.8,-7.7 6.5,-4.1zM1002.60073,313.29853c0,2.7 -36.9,48.2 -41.8,51.5c-5.4,3.6 -23.2,7.9 -23.2,5.6c0,-2 36.9,-37 54.5,-51.6c7.8,-6.5 10.5,-7.9 10.5,-5.5zM649.30073,345.29853c-0.8,1.3 -4.2,5.3 -7.5,9c-13.9,15.5 -55.1,67.1 -70.7,88.7c-5,6.8 -10.6,14.2 -12.5,16.3l-3.5,4l-11.4,0.9c-6.3,0.5 -16.9,1.8 -23.5,2.9c-13.9,2.2 -25.6,3.5 -25.6,2.8c0,-0.9 59.3,-54.3 75,-67.6c29.7,-25.3 67.6,-54.9 75.5,-59.1c4.6,-2.4 6.6,-1.4 4.2,2.1zM952.60073,375.59853c0,0.9 -4,5.7 -8.9,10.8c-14.9,15.3 -23.1,27.3 -23.1,33.6c0,1.4 -0.4,3.1 -0.8,3.7c-0.4,0.7 -6.8,1.9 -14.2,2.8c-7.4,0.9 -15.8,1.9 -18.7,2.2c-5.1,0.7 -5.2,0.6 -7.2,-2.7c-1.2,-2 -1.8,-4.2 -1.5,-5.4c1.1,-3.7 11.8,-19 17.4,-24.6c8.3,-8.4 20,-14.5 20,-10.5c0,1.5 -8.3,10.8 -24.2,27.2c-9.1,9.4 -11.6,13.4 -8.5,13.4c0.6,0 11.4,-10.3 23.8,-22.9l22.5,-22.9l7,-2c16.1,-4.8 16.4,-4.8 16.4,-2.7zM888.60073,394.99853c0,0.5 -1.9,3.3 -4.2,6.1c-8.1,9.9 -10.3,13.5 -12.8,21l-2.5,7.5l-6,0.7c-3.3,0.3 -14.4,1.6 -24.8,2.8c-10.3,1.2 -19.4,1.9 -20.3,1.6c-2.4,-0.9 0.4,-5.3 7.8,-12.2c8.7,-8.1 23.1,-15.4 49.3,-25c9.1,-3.3 13.5,-4.1 13.5,-2.5zM667.60073,397.49853c0,0.8 -7.3,9.2 -16.2,18.6c-20.1,21.2 -28.3,30.4 -31.4,35.2c-1.9,3 -3.2,3.8 -7.6,4.8c-7.6,1.7 -25.8,2.6 -25.8,1.2c0,-1.8 12.6,-12.7 28.9,-25c31.6,-24 42.6,-32.1 46.6,-34.1c4.8,-2.5 5.5,-2.6 5.5,-0.7zM1009.50073,408.69853l2.3,2.7l19.8,-0.7c12.8,-0.5 20,-0.4 20.4,0.3c1.3,2 -4.1,2.7 -35.4,5.1c-14.6,1 -26.8,1.6 -27.3,1.1c-0.4,-0.4 0.1,-1.5 1.2,-2.5c2.2,-2 14.1,-8.5 15.7,-8.6c0.6,0 2.1,1.2 3.3,2.6zM784.20073,413.29853c0.4,0.6 -1,4.4 -3.2,8.3c-3.3,6.2 -3.6,7.5 -2.5,8.9c0.7,0.9 2.4,1.6 3.8,1.6c2,0 2.4,0.4 2.1,2.2c-0.5,3.6 -5.1,5 -18.7,5.9c-25.4,1.7 -100.2,9.6 -117.6,12.4c-6.1,1 -9.3,1.1 -10,0.4c-1.3,-1.3 0.9,-3 9.5,-7.4c3.6,-1.8 11,-6.1 16.5,-9.4c10.3,-6.3 13.4,-7.2 15.5,-4.6c1.8,2.2 4.8,1.8 12,-1.6c3.6,-1.7 9.1,-3.9 12.3,-5c5.4,-1.8 6.1,-1.9 8.3,-0.4c1.4,0.9 2.4,2.5 2.4,3.8c0,2.9 2.7,6.7 4.7,6.7c0.8,0 5.9,-1.9 11.2,-4.1c17.2,-7.4 47.5,-18.8 50.3,-18.8c1.5,-0.1 3,0.4 3.4,1.1zM1102.60073,413.59853c0,2.1 -2.7,3 -4.5,1.5c-1.9,-1.6 -1,-3 2.1,-3c1.5,0 2.4,0.6 2.4,1.5zM1089.20073,417.49853c5.2,4.4 7.1,4.9 13,3.1c9.2,-2.8 27.5,-3.8 59.9,-3.2c27.5,0.5 41.8,1.5 46.5,3.3c3.9,1.4 -3.4,2.6 -21.3,3.5c-30,1.4 -75,5 -103.2,8.4c-6.6,0.8 -25,2.6 -41,4c-15.9,1.4 -44.3,4.1 -63,6c-43.7,4.4 -92.5,8.8 -133.5,11.9c-46.4,3.6 -55,4 -55,2.9c0,-1.5 12.1,-12.8 15.7,-14.7c2.2,-1.1 6.7,-1.8 14,-2.1c5.9,-0.2 18.7,-1.3 28.3,-2.4c35.4,-4.1 49,-5.2 73,-6.1c20.3,-0.7 27.3,-1.4 40.5,-3.9c17.7,-3.3 38.1,-5.7 80,-9.7c15.4,-1.4 30.5,-2.9 33.5,-3.4c3,-0.4 6.2,-0.8 7.1,-0.9c0.8,0 3.3,1.4 5.5,3.3zM821.60073,421.09853c0,2 -8.8,9.6 -14.7,12.8c-6.9,3.6 -13.1,4.9 -16.2,3.3c-5.8,-3.2 0.6,-8.3 17.6,-14.1c9.2,-3.1 13.3,-3.7 13.3,-2zM796.60073,443.49853c0,1.9 -12.9,14.8 -14.4,14.3c-1.8,-0.6 -1.1,-7.6 1.1,-10.5c1.1,-1.5 3.1,-3.3 4.4,-3.9c3.3,-1.7 8.9,-1.7 8.9,0.1zM776.60073,446.59853c0,1.3 -0.5,4.6 -1.1,7.4l-1,5l-5.2,0.6c-2.9,0.3 -32.6,2.3 -66.2,4.5c-33.5,2.2 -67.7,4.5 -76,5c-26.4,1.7 -71.8,4 -72.2,3.7c-0.7,-0.8 0.8,-3.3 2.9,-4.6c1.2,-0.7 7.1,-1.7 13.2,-2.2c6.1,-0.4 19.1,-1.7 28.8,-2.9c9.8,-1.1 44.7,-4.7 77.5,-8c67.7,-6.9 94.5,-9.8 95.2,-10.5c0.2,-0.3 1.3,-0.5 2.3,-0.5c1.2,0 1.8,0.7 1.8,2.5zM552.40073,470.19853c0.2,0.9 -0.8,2 -2.3,2.7c-5.4,2.5 -60.4,7.9 -63.4,6.2c-1.4,-0.7 -1.2,-1 0.9,-1.8c3.4,-1.2 13,-2.9 28,-4.7c6.9,-0.9 16.3,-2.2 21,-3c10.7,-1.7 15.4,-1.5 15.8,0.6zM479.60073,478.99853c0,1.3 -2.6,2.1 -9.2,2.8c-6.6,0.7 -8.3,-1.2 -2,-2.2c2,-0.4 4.2,-0.8 4.7,-1c2.1,-0.7 6.5,-0.5 6.5,0.4zM468.60073,488.29853c0,2.4 -43.4,43.8 -45.9,43.8c-3.6,0 -0.5,-11.2 8,-28.8c6.6,-13.8 6.6,-13.7 18.3,-15.1c11.5,-1.4 19.6,-1.3 19.6,0.1zM501.60073,543.29853c-0.1,2.4 -54.9,79.1 -62.7,87.8c-10.6,11.8 -8.8,2.2 3,-15.8c12.9,-19.6 38.6,-52.8 51.1,-66c6.8,-7.1 8.6,-8.4 8.6,-6z" id="CompoundPath 1"/><path d="M571.60073,250.29853c-4.8,2.4 -16,12.6 -16,14.6c0,2.6 3.1,2.3 6.6,-0.4c6.4,-5.1 8.9,-6.5 11,-5.9c3.6,0.8 8,-5.3 6.2,-8.8c-1.1,-2.2 -2.4,-2.2 -7.8,0.5z" id="Path 1"/><path d="M546.60073,272.49853c-9.2,6.3 -47.3,53.1 -60.3,73.9c-11.3,18.3 -19.3,39 -20.4,53.3c-0.7,8.9 0.8,13.9 4.8,16c5.2,2.7 6.3,0 2.8,-6.8c-2.8,-5.5 -2.2,-13.1 2,-25.8c9.5,-28.4 33,-63.1 66.3,-97.7c6.5,-6.8 11.8,-12.9 11.8,-13.8c0,-2.2 -3,-1.8 -7,0.9z" id="Path 1"/></g></g></g></g></svg>